<svg fill="none" viewBox="0 0 129 38" xmlns="http://www.w3.org/2000/svg" tabindex="0" class="sc-2wcxmz-4 eFbraG"><path d="M56.1 25.935h3.5l-4.76-14h-4.08l-4.76 14h3.5l.7-2.2h5.2l.7 2.2zm-4.94-5.2l1.64-5.14 1.64 5.14h-3.28zm21.994 5.2h3.44l-2.98-5.14c1.54-.78 2.58-2.34 2.58-4.06 0-2.66-2.14-4.8-4.8-4.8h-5.6v14h3.2v-4.6h1.52l2.64 4.6zm-4.16-11h2.4c.88 0 1.6.78 1.6 1.8s-.72 1.8-1.6 1.8h-2.4v-3.6zm25.424 11l-4.92-7.18 4.72-6.82h-3.64l-4.28 6.08v-6.08h-3.2v14h3.2v-6.48l4.48 6.48h3.64zm9.4-3.08v-2.48h5v-3.04h-5v-2.32h5.5v-3.08h-8.7v14h8.8v-3.08h-5.6zm20.205-10.92v7.6l-5.4-7.6h-2.4v14h3.2v-7.6l5.4 7.6h2.4v-14h-3.2z" fill="#000"></path><path d="M16.657 2.164L11.21 18.808m5.447-16.644l5.57 16.644m-5.57-16.644l14.728 23.503M16.657 2.164L1.623 25.667m9.587-6.859l5.447 17.438M11.21 18.808l-9.587 6.86m9.587-6.86h11.018m-5.571 17.438l5.57-17.438m-5.57 17.438l14.728-10.579M16.657 36.246L1.623 25.667m20.605-6.859l9.157 6.86" stroke="#000" stroke-width="2.14"></path></svg>