<svg width="246" height="66" viewBox="0 0 246 66" fill="none" xmlns="http://www.w3.org/2000/svg">
<path d="M42.4908 36.402C44.2526 40.8086 45.0865 49.6249 45.3059 52.3182C45.3435 52.7841 45.7323 53.1478 46.2182 53.1808C60.5541 54.1337 63.852 47.7522 64.5385 45.7052C64.6576 45.3445 64.5448 44.9537 64.2438 44.7073C58.5446 40.0542 51.2904 36.1315 48.933 34.9081C48.5505 34.7097 48.074 34.7698 47.7762 35.0704C47.2245 35.6265 45.9204 36.39 42.9297 36.3058H42.4375L42.4908 36.402Z" fill="#252525"/>
<path d="M46.2401 28.0035C45.7197 27.3632 43.8607 25.4846 39.1521 24.1229C39.0267 24.0868 38.9233 23.9966 38.8762 23.8764L35.0297 14.0682C34.9106 13.7676 35.1865 13.461 35.5125 13.5271C38.3214 14.0983 48.5035 16.6623 57.3345 25.223C57.5728 25.4545 57.4411 25.8513 57.1057 25.9084C55.2498 26.218 50.491 27.0627 46.6947 28.1448C46.5254 28.1899 46.3498 28.1358 46.2401 28.0035Z" fill="#252525"/>
<path d="M31.7507 26.1219C31.5846 28.4665 32.362 30.2369 32.9295 31.1958C33.1834 31.6257 32.9702 32.1667 32.4843 32.329C29.5375 33.3059 20.882 36.2277 17.3114 38.0312C16.9415 38.2176 16.4901 38.1154 16.2518 37.7877C14.4273 35.2898 7.77191 25.2562 13.189 18.541C13.4085 18.2705 13.7815 18.1623 14.1169 18.2765C16.3897 19.049 25.2866 22.1721 31.3056 25.6319C31.3651 25.665 31.4184 25.7071 31.4686 25.7522L31.6818 25.9566L31.7507 26.1219Z" fill="#252525"/>
<path d="M44.888 32.8455C45.8852 31.4601 44.634 28.9741 42.0934 27.2929C39.5527 25.6116 36.6848 25.3718 35.6876 26.7571C34.6905 28.1425 35.9416 30.6286 38.4823 32.3098C41.0229 33.9911 43.8908 34.2309 44.888 32.8455Z" fill="#252525"/>
<path d="M83.1816 30.5352L80.6439 33.2402V39.8142H74.4582V14.8877H80.6439V25.8786L82.7939 22.7115L88.3275 14.8877H95.9759L87.3054 25.9129L95.9759 39.8142H88.6448L83.1816 30.5352Z" fill="#252525"/>
<path d="M103.536 39.8142H97.5796V21.2905H103.536V39.8142ZM97.2272 16.514C97.2272 15.6923 97.5326 15.0189 98.1436 14.4939C98.7545 13.9689 99.5476 13.7064 100.523 13.7064C101.498 13.7064 102.291 13.9689 102.902 14.4939C103.513 15.0189 103.818 15.6923 103.818 16.514C103.818 17.3358 103.513 18.0092 102.902 18.5342C102.291 19.0592 101.498 19.3217 100.523 19.3217C99.5476 19.3217 98.7545 19.0592 98.1436 18.5342C97.5326 18.0092 97.2272 17.3358 97.2272 16.514Z" fill="#252525"/>
<path d="M113.476 39.8142H107.519V13.5181H113.476V39.8142Z" fill="#252525"/>
<path d="M123.415 39.8142H117.458V13.5181H123.415V39.8142Z" fill="#252525"/>
<path d="M140.598 33.1888C140.598 32.31 140.274 31.6252 139.628 31.1344C138.994 30.6437 137.872 30.1358 136.262 29.6108C134.653 29.0858 133.337 28.5779 132.315 28.0871C128.99 26.5007 127.327 24.3207 127.327 21.5473C127.327 20.1663 127.739 18.9508 128.561 17.9008C129.395 16.8393 130.57 16.0176 132.086 15.4355C133.601 14.842 135.305 14.5453 137.196 14.5453C139.041 14.5453 140.692 14.8648 142.148 15.504C143.617 16.1431 144.757 17.0562 145.567 18.2432C146.378 19.4187 146.783 20.7655 146.783 22.2835H140.615C140.615 21.2677 140.292 20.4802 139.646 19.9209C139.011 19.3617 138.148 19.082 137.055 19.082C135.951 19.082 135.076 19.3217 134.429 19.8011C133.795 20.269 133.478 20.8682 133.478 21.5987C133.478 22.2378 133.83 22.8199 134.535 23.3449C135.24 23.8585 136.48 24.3949 138.254 24.9542C140.028 25.502 141.485 26.0955 142.624 26.7346C145.397 28.2868 146.783 30.4268 146.783 33.1546C146.783 35.3345 145.937 37.0465 144.246 38.2906C142.554 39.5346 140.233 40.1566 137.284 40.1566C135.205 40.1566 133.319 39.7971 131.627 39.0781C129.947 38.3476 128.678 37.3547 127.821 36.0992C126.975 34.8323 126.552 33.3771 126.552 31.7336H132.755C132.755 33.069 133.108 34.0562 133.813 34.6954C134.529 35.3231 135.687 35.637 137.284 35.637C138.307 35.637 139.111 35.4258 139.699 35.0035C140.298 34.5698 140.598 33.9649 140.598 33.1888Z" fill="#252525"/>
<path d="M166.151 32.213L168.072 21.2905H173.764L169.27 39.8142H164.248L161.093 28.8233L157.921 39.8142H152.898L148.405 21.2905H154.097L155.982 32.4698L159.014 21.2905H163.155L166.151 32.213Z" fill="#252525"/>
<path d="M182.17 39.8142H176.214V21.2905H182.17V39.8142ZM175.861 16.514C175.861 15.6923 176.167 15.0189 176.778 14.4939C177.389 13.9689 178.182 13.7064 179.157 13.7064C180.132 13.7064 180.925 13.9689 181.536 14.4939C182.147 15.0189 182.452 15.6923 182.452 16.514C182.452 17.3358 182.147 18.0092 181.536 18.5342C180.925 19.0592 180.132 19.3217 179.157 19.3217C178.182 19.3217 177.389 19.0592 176.778 18.5342C176.167 18.0092 175.861 17.3358 175.861 16.514Z" fill="#252525"/>
<path d="M192.762 16.6852V21.2905H195.899V25.2966H192.762V33.7709C192.762 34.4671 192.891 34.9522 193.149 35.2261C193.408 35.5 193.919 35.637 194.683 35.637C195.27 35.637 195.764 35.6027 196.163 35.5343V39.6601C195.094 39.9911 193.978 40.1566 192.815 40.1566C190.77 40.1566 189.261 39.6887 188.286 38.7528C187.31 37.8169 186.823 36.396 186.823 34.4899V25.2966H184.391V21.2905H186.823V16.6852H192.762Z" fill="#252525"/>
<path d="M206.314 35.7055C207.148 35.7055 207.794 35.4886 208.252 35.0549C208.711 34.6098 208.934 33.9935 208.922 33.2059H214.491C214.491 35.2375 213.739 36.9038 212.235 38.205C210.743 39.5061 208.816 40.1566 206.455 40.1566C203.682 40.1566 201.497 39.312 199.899 37.6229C198.301 35.9337 197.502 33.594 197.502 30.6037V30.364C197.502 28.4923 197.855 26.8431 198.56 25.4164C199.276 23.9783 200.304 22.8769 201.644 22.1123C202.983 21.3362 204.569 20.9481 206.402 20.9481C208.881 20.9481 210.849 21.6158 212.306 22.9511C213.763 24.2865 214.491 26.0955 214.491 28.3781H208.922C208.922 27.4194 208.681 26.6833 208.2 26.1697C207.718 25.6561 207.072 25.3993 206.261 25.3993C204.722 25.3993 203.823 26.3523 203.565 28.2583C203.482 28.8632 203.441 29.6964 203.441 30.7578C203.441 32.6182 203.67 33.9079 204.129 34.6269C204.587 35.3459 205.315 35.7055 206.314 35.7055Z" fill="#252525"/>
<path d="M222.809 23.2764C224.078 21.7242 225.699 20.9481 227.673 20.9481C229.776 20.9481 231.362 21.553 232.431 22.7628C233.5 23.9726 234.047 25.7588 234.07 28.1213V39.8142H228.114V28.2583C228.114 27.2768 227.908 26.5577 227.497 26.1012C227.086 25.6332 226.387 25.3993 225.4 25.3993C224.178 25.3993 223.314 25.7759 222.809 26.5292V39.8142H216.87V13.5181H222.809V23.2764Z" fill="#252525"/>
<path d="M75.3645 52.4819C75.6559 52.4819 75.8808 52.5627 76.0394 52.7242C76.1979 52.8816 76.2772 53.0804 76.2772 53.3206C76.2772 53.5567 76.1979 53.7534 76.0394 53.9108C75.8808 54.064 75.6559 54.1406 75.3645 54.1406C75.086 54.1406 74.8653 54.064 74.7024 53.9108C74.5396 53.7575 74.4582 53.5608 74.4582 53.3206C74.4582 53.0804 74.5375 52.8816 74.696 52.7242C74.8546 52.5627 75.0774 52.4819 75.3645 52.4819Z" fill="#252525"/>
<path d="M83.6112 50.2393H79.8446V54.0723H78.2184V45.0271H84.164V46.2944H79.8446V48.9844H83.6112V50.2393Z" fill="#252525"/>
<path d="M86.9664 54.0723H85.4045V47.3505H86.9664V54.0723ZM85.3081 45.6048C85.3081 45.3729 85.3831 45.1803 85.5331 45.0271C85.6873 44.8739 85.9059 44.7972 86.1887 44.7972C86.4715 44.7972 86.6901 44.8739 86.8443 45.0271C86.9986 45.1803 87.0757 45.3729 87.0757 45.6048C87.0757 45.8326 86.9986 46.0231 86.8443 46.1764C86.6901 46.3255 86.4715 46.4 86.1887 46.4C85.9059 46.4 85.6873 46.3255 85.5331 46.1764C85.3831 46.0231 85.3081 45.8326 85.3081 45.6048Z" fill="#252525"/>
<path d="M90.1224 47.3505L90.1674 48.1271C90.6816 47.5265 91.3566 47.2263 92.1921 47.2263C93.6405 47.2263 94.3776 48.0277 94.4033 49.6304V54.0723H92.8413V49.7174C92.8413 49.2908 92.7449 48.9761 92.5521 48.7731C92.3636 48.5661 92.0529 48.4625 91.6201 48.4625C90.9902 48.4625 90.521 48.7379 90.2124 49.2888V54.0723H88.6505V47.3505H90.1224Z" fill="#252525"/>
<path d="M100.156 54.0723C100.087 53.9439 100.027 53.7347 99.9761 53.4448C99.479 53.946 98.8705 54.1965 98.1506 54.1965C97.4521 54.1965 96.8822 54.0039 96.4408 53.6188C95.9995 53.2336 95.7788 52.7573 95.7788 52.1899C95.7788 51.4734 96.053 50.9247 96.6015 50.5437C97.1543 50.1585 97.9428 49.9659 98.9669 49.9659H99.9246V49.5248C99.9246 49.1769 99.8239 48.8995 99.6225 48.6924C99.4211 48.4812 99.1148 48.3756 98.7034 48.3756C98.3477 48.3756 98.0563 48.4625 97.8292 48.6365C97.6021 48.8063 97.4886 49.0237 97.4886 49.2888H95.9266C95.9266 48.9202 96.053 48.5764 96.3059 48.2575C96.5587 47.9345 96.9015 47.6818 97.3343 47.4996C97.7714 47.3174 98.2577 47.2263 98.7934 47.2263C99.6075 47.2263 100.257 47.4251 100.741 47.8227C101.225 48.2161 101.474 48.7711 101.487 49.4876V52.5192C101.487 53.1239 101.574 53.6064 101.75 53.9667V54.0723H100.156ZM98.4398 52.9851C98.7484 52.9851 99.0376 52.9126 99.3076 52.7677C99.5818 52.6227 99.7875 52.4281 99.9246 52.1837V50.9164H99.0826C98.5041 50.9164 98.0692 51.0137 97.7778 51.2084C97.4864 51.403 97.3407 51.6785 97.3407 52.0346C97.3407 52.3245 97.4393 52.5565 97.6364 52.7304C97.8378 52.9002 98.1056 52.9851 98.4398 52.9851Z" fill="#252525"/>
<path d="M104.572 47.3505L104.617 48.1271C105.131 47.5265 105.806 47.2263 106.642 47.2263C108.09 47.2263 108.827 48.0277 108.853 49.6304V54.0723H107.291V49.7174C107.291 49.2908 107.194 48.9761 107.002 48.7731C106.813 48.5661 106.502 48.4625 106.07 48.4625C105.44 48.4625 104.97 48.7379 104.662 49.2888V54.0723H103.1V47.3505H104.572Z" fill="#252525"/>
<path d="M113.307 52.9913C113.697 52.9913 114.021 52.8816 114.278 52.6621C114.535 52.4426 114.672 52.1713 114.689 51.8483H116.161C116.144 52.2666 116.009 52.6579 115.756 53.0224C115.503 53.3827 115.16 53.6685 114.728 53.8797C114.295 54.0909 113.828 54.1965 113.326 54.1965C112.354 54.1965 111.582 53.8921 111.012 53.2833C110.442 52.6745 110.158 51.8338 110.158 50.7611V50.6058C110.158 49.5828 110.44 48.7649 111.006 48.1519C111.572 47.5348 112.343 47.2263 113.32 47.2263C114.147 47.2263 114.82 47.4603 115.338 47.9283C115.861 48.3921 116.135 49.003 116.161 49.7609H114.689C114.672 49.3757 114.535 49.0589 114.278 48.8104C114.025 48.5619 113.701 48.4377 113.307 48.4377C112.801 48.4377 112.411 48.6158 112.137 48.9719C111.863 49.324 111.724 49.8603 111.719 50.5809V50.8232C111.719 51.5521 111.854 52.0968 112.124 52.4571C112.399 52.8132 112.793 52.9913 113.307 52.9913Z" fill="#252525"/>
<path d="M120.403 54.1965C119.413 54.1965 118.61 53.8963 117.993 53.2957C117.38 52.6911 117.074 51.8876 117.074 50.8853V50.699C117.074 50.028 117.207 49.4296 117.472 48.9036C117.742 48.3735 118.119 47.9614 118.603 47.6673C119.088 47.3733 119.628 47.2263 120.223 47.2263C121.17 47.2263 121.901 47.5182 122.415 48.1022C122.934 48.6862 123.193 49.5124 123.193 50.5809V51.1897H118.648C118.696 51.7447 118.886 52.1837 119.221 52.5068C119.559 52.8298 119.983 52.9913 120.493 52.9913C121.209 52.9913 121.792 52.7118 122.242 52.1527L123.084 52.9292C122.805 53.3309 122.432 53.6436 121.965 53.8673C121.502 54.0868 120.982 54.1965 120.403 54.1965ZM120.217 48.4377C119.788 48.4377 119.441 48.5826 119.176 48.8725C118.914 49.1625 118.747 49.5663 118.674 50.084H121.65V49.9721C121.616 49.4669 121.477 49.0858 121.232 48.8291C120.988 48.5681 120.65 48.4377 120.217 48.4377Z" fill="#252525"/>
</svg>
