<svg width="131" height="57" viewBox="0 0 131 57" fill="none" xmlns="http://www.w3.org/2000/svg">
<rect width="131" height="57" rx="8" fill="white"/>
<path d="M34.1719 24.4688H36.9961C37.6367 24.4688 38.1777 24.5664 38.6191 24.7617C39.0645 24.957 39.4023 25.2461 39.6328 25.6289C39.8672 26.0078 39.9844 26.4746 39.9844 27.0293C39.9844 27.4199 39.9043 27.7773 39.7441 28.1016C39.5879 28.4219 39.3613 28.6953 39.0645 28.9219C38.7715 29.1445 38.4199 29.3105 38.0098 29.4199L37.6934 29.543H35.0391L35.0273 28.623H37.0312C37.4375 28.623 37.7754 28.5527 38.0449 28.4121C38.3145 28.2676 38.5176 28.0742 38.6543 27.832C38.791 27.5898 38.8594 27.3223 38.8594 27.0293C38.8594 26.7012 38.7949 26.4141 38.666 26.168C38.5371 25.9219 38.334 25.7324 38.0566 25.5996C37.7832 25.4629 37.4297 25.3945 36.9961 25.3945H35.3027V33H34.1719V24.4688ZM39.1582 33L37.084 29.1328L38.2617 29.127L40.3652 32.9297V33H39.1582ZM44.0332 33.1172C43.5918 33.1172 43.1914 33.043 42.832 32.8945C42.4766 32.7422 42.1699 32.5293 41.9121 32.2559C41.6582 31.9824 41.4629 31.6582 41.3262 31.2832C41.1895 30.9082 41.1211 30.498 41.1211 30.0527V29.8066C41.1211 29.291 41.1973 28.832 41.3496 28.4297C41.502 28.0234 41.709 27.6797 41.9707 27.3984C42.2324 27.1172 42.5293 26.9043 42.8613 26.7598C43.1934 26.6152 43.5371 26.543 43.8926 26.543C44.3457 26.543 44.7363 26.6211 45.0645 26.7773C45.3965 26.9336 45.668 27.1523 45.8789 27.4336C46.0898 27.7109 46.2461 28.0391 46.3477 28.418C46.4492 28.793 46.5 29.2031 46.5 29.6484V30.1348H41.7656V29.25H45.416V29.168C45.4004 28.8867 45.3418 28.6133 45.2402 28.3477C45.1426 28.082 44.9863 27.8633 44.7715 27.6914C44.5566 27.5195 44.2637 27.4336 43.8926 27.4336C43.6465 27.4336 43.4199 27.4863 43.2129 27.5918C43.0059 27.6934 42.8281 27.8457 42.6797 28.0488C42.5312 28.252 42.416 28.5 42.334 28.793C42.252 29.0859 42.2109 29.4238 42.2109 29.8066V30.0527C42.2109 30.3535 42.252 30.6367 42.334 30.9023C42.4199 31.1641 42.543 31.3945 42.7031 31.5938C42.8672 31.793 43.0645 31.9492 43.2949 32.0625C43.5293 32.1758 43.7949 32.2324 44.0918 32.2324C44.4746 32.2324 44.7988 32.1543 45.0645 31.998C45.3301 31.8418 45.5625 31.6328 45.7617 31.3711L46.418 31.8926C46.2812 32.0996 46.1074 32.2969 45.8965 32.4844C45.6855 32.6719 45.4258 32.8242 45.1172 32.9414C44.8125 33.0586 44.4512 33.1172 44.0332 33.1172ZM49.6113 32.0215L51.3457 26.6602H52.4531L50.1738 33H49.4473L49.6113 32.0215ZM48.1641 26.6602L49.9512 32.0508L50.0742 33H49.3477L47.0508 26.6602H48.1641ZM56.0449 33.1172C55.6035 33.1172 55.2031 33.043 54.8438 32.8945C54.4883 32.7422 54.1816 32.5293 53.9238 32.2559C53.6699 31.9824 53.4746 31.6582 53.3379 31.2832C53.2012 30.9082 53.1328 30.498 53.1328 30.0527V29.8066C53.1328 29.291 53.209 28.832 53.3613 28.4297C53.5137 28.0234 53.7207 27.6797 53.9824 27.3984C54.2441 27.1172 54.541 26.9043 54.873 26.7598C55.2051 26.6152 55.5488 26.543 55.9043 26.543C56.3574 26.543 56.748 26.6211 57.0762 26.7773C57.4082 26.9336 57.6797 27.1523 57.8906 27.4336C58.1016 27.7109 58.2578 28.0391 58.3594 28.418C58.4609 28.793 58.5117 29.2031 58.5117 29.6484V30.1348H53.7773V29.25H57.4277V29.168C57.4121 28.8867 57.3535 28.6133 57.252 28.3477C57.1543 28.082 56.998 27.8633 56.7832 27.6914C56.5684 27.5195 56.2754 27.4336 55.9043 27.4336C55.6582 27.4336 55.4316 27.4863 55.2246 27.5918C55.0176 27.6934 54.8398 27.8457 54.6914 28.0488C54.543 28.252 54.4277 28.5 54.3457 28.793C54.2637 29.0859 54.2227 29.4238 54.2227 29.8066V30.0527C54.2227 30.3535 54.2637 30.6367 54.3457 30.9023C54.4316 31.1641 54.5547 31.3945 54.7148 31.5938C54.8789 31.793 55.0762 31.9492 55.3066 32.0625C55.541 32.1758 55.8066 32.2324 56.1035 32.2324C56.4863 32.2324 56.8105 32.1543 57.0762 31.998C57.3418 31.8418 57.5742 31.6328 57.7734 31.3711L58.4297 31.8926C58.293 32.0996 58.1191 32.2969 57.9082 32.4844C57.6973 32.6719 57.4375 32.8242 57.1289 32.9414C56.8242 33.0586 56.4629 33.1172 56.0449 33.1172ZM63.5156 31.916V28.6523C63.5156 28.4023 63.4648 28.1855 63.3633 28.002C63.2656 27.8145 63.1172 27.6699 62.918 27.5684C62.7188 27.4668 62.4727 27.416 62.1797 27.416C61.9062 27.416 61.666 27.4629 61.459 27.5566C61.2559 27.6504 61.0957 27.7734 60.9785 27.9258C60.8652 28.0781 60.8086 28.2422 60.8086 28.418H59.7246C59.7246 28.1914 59.7832 27.9668 59.9004 27.7441C60.0176 27.5215 60.1855 27.3203 60.4043 27.1406C60.627 26.957 60.8926 26.8125 61.2012 26.707C61.5137 26.5977 61.8613 26.543 62.2441 26.543C62.7051 26.543 63.1113 26.6211 63.4629 26.7773C63.8184 26.9336 64.0957 27.1699 64.2949 27.4863C64.498 27.7988 64.5996 28.1914 64.5996 28.6641V31.6172C64.5996 31.8281 64.6172 32.0527 64.6523 32.291C64.6914 32.5293 64.748 32.7344 64.8223 32.9062V33H63.6914C63.6367 32.875 63.5938 32.709 63.5625 32.502C63.5312 32.291 63.5156 32.0957 63.5156 31.916ZM63.7031 29.1562L63.7148 29.918H62.6191C62.3105 29.918 62.0352 29.9434 61.793 29.9941C61.5508 30.041 61.3477 30.1133 61.1836 30.2109C61.0195 30.3086 60.8945 30.4316 60.8086 30.5801C60.7227 30.7246 60.6797 30.8945 60.6797 31.0898C60.6797 31.2891 60.7246 31.4707 60.8145 31.6348C60.9043 31.7988 61.0391 31.9297 61.2188 32.0273C61.4023 32.1211 61.627 32.168 61.8926 32.168C62.2246 32.168 62.5176 32.0977 62.7715 31.957C63.0254 31.8164 63.2266 31.6445 63.375 31.4414C63.5273 31.2383 63.6094 31.041 63.6211 30.8496L64.084 31.3711C64.0566 31.5352 63.9824 31.7168 63.8613 31.916C63.7402 32.1152 63.5781 32.3066 63.375 32.4902C63.1758 32.6699 62.9375 32.8203 62.6602 32.9414C62.3867 33.0586 62.0781 33.1172 61.7344 33.1172C61.3047 33.1172 60.9277 33.0332 60.6035 32.8652C60.2832 32.6973 60.0332 32.4727 59.8535 32.1914C59.6777 31.9062 59.5898 31.5879 59.5898 31.2363C59.5898 30.8965 59.6562 30.5977 59.7891 30.3398C59.9219 30.0781 60.1133 29.8613 60.3633 29.6895C60.6133 29.5137 60.9141 29.3809 61.2656 29.291C61.6172 29.2012 62.0098 29.1562 62.4434 29.1562H63.7031ZM67.4824 24V33H66.3926V24H67.4824ZM76.9102 30.8438C76.9102 30.6445 76.8789 30.4688 76.8164 30.3164C76.7578 30.1602 76.6523 30.0195 76.5 29.8945C76.3516 29.7695 76.1445 29.6504 75.8789 29.5371C75.6172 29.4238 75.2852 29.3086 74.8828 29.1914C74.4609 29.0664 74.0801 28.9277 73.7402 28.7754C73.4004 28.6191 73.1094 28.4414 72.8672 28.2422C72.625 28.043 72.4395 27.8145 72.3105 27.5566C72.1816 27.2988 72.1172 27.0039 72.1172 26.6719C72.1172 26.3398 72.1855 26.0332 72.3223 25.752C72.459 25.4707 72.6543 25.2266 72.9082 25.0195C73.166 24.8086 73.4727 24.6445 73.8281 24.5273C74.1836 24.4102 74.5801 24.3516 75.0176 24.3516C75.6582 24.3516 76.2012 24.4746 76.6465 24.7207C77.0957 24.9629 77.4375 25.2812 77.6719 25.6758C77.9062 26.0664 78.0234 26.4844 78.0234 26.9297H76.8984C76.8984 26.6094 76.8301 26.3262 76.6934 26.0801C76.5566 25.8301 76.3496 25.6348 76.0723 25.4941C75.7949 25.3496 75.4434 25.2773 75.0176 25.2773C74.6152 25.2773 74.2832 25.3379 74.0215 25.459C73.7598 25.5801 73.5645 25.7441 73.4355 25.9512C73.3105 26.1582 73.248 26.3945 73.248 26.6602C73.248 26.8398 73.2852 27.0039 73.3594 27.1523C73.4375 27.2969 73.5566 27.4316 73.7168 27.5566C73.8809 27.6816 74.0879 27.7969 74.3379 27.9023C74.5918 28.0078 74.8945 28.1094 75.2461 28.207C75.7305 28.3438 76.1484 28.4961 76.5 28.6641C76.8516 28.832 77.1406 29.0215 77.3672 29.2324C77.5977 29.4395 77.7676 29.6758 77.877 29.9414C77.9902 30.2031 78.0469 30.5 78.0469 30.832C78.0469 31.1797 77.9766 31.4941 77.8359 31.7754C77.6953 32.0566 77.4941 32.2969 77.2324 32.4961C76.9707 32.6953 76.6562 32.8496 76.2891 32.959C75.9258 33.0645 75.5195 33.1172 75.0703 33.1172C74.6758 33.1172 74.2871 33.0625 73.9043 32.9531C73.5254 32.8438 73.1797 32.6797 72.8672 32.4609C72.5586 32.2422 72.3105 31.9727 72.123 31.6523C71.9395 31.3281 71.8477 30.9531 71.8477 30.5273H72.9727C72.9727 30.8203 73.0293 31.0723 73.1426 31.2832C73.2559 31.4902 73.4102 31.6621 73.6055 31.7988C73.8047 31.9355 74.0293 32.0371 74.2793 32.1035C74.5332 32.166 74.7969 32.1973 75.0703 32.1973C75.4648 32.1973 75.7988 32.1426 76.0723 32.0332C76.3457 31.9238 76.5527 31.7676 76.6934 31.5645C76.8379 31.3613 76.9102 31.1211 76.9102 30.8438ZM79.0371 29.9004V29.7656C79.0371 29.3086 79.1035 28.8848 79.2363 28.4941C79.3691 28.0996 79.5605 27.7578 79.8105 27.4688C80.0605 27.1758 80.3633 26.9492 80.7188 26.7891C81.0742 26.625 81.4727 26.543 81.9141 26.543C82.3594 26.543 82.7598 26.625 83.1152 26.7891C83.4746 26.9492 83.7793 27.1758 84.0293 27.4688C84.2832 27.7578 84.4766 28.0996 84.6094 28.4941C84.7422 28.8848 84.8086 29.3086 84.8086 29.7656V29.9004C84.8086 30.3574 84.7422 30.7812 84.6094 31.1719C84.4766 31.5625 84.2832 31.9043 84.0293 32.1973C83.7793 32.4863 83.4766 32.7129 83.1211 32.877C82.7695 33.0371 82.3711 33.1172 81.9258 33.1172C81.4805 33.1172 81.0801 33.0371 80.7246 32.877C80.3691 32.7129 80.0645 32.4863 79.8105 32.1973C79.5605 31.9043 79.3691 31.5625 79.2363 31.1719C79.1035 30.7812 79.0371 30.3574 79.0371 29.9004ZM80.1211 29.7656V29.9004C80.1211 30.2168 80.1582 30.5156 80.2324 30.7969C80.3066 31.0742 80.418 31.3203 80.5664 31.5352C80.7188 31.75 80.9082 31.9199 81.1348 32.0449C81.3613 32.166 81.625 32.2266 81.9258 32.2266C82.2227 32.2266 82.4824 32.166 82.7051 32.0449C82.9316 31.9199 83.1191 31.75 83.2676 31.5352C83.416 31.3203 83.5273 31.0742 83.6016 30.7969C83.6797 30.5156 83.7188 30.2168 83.7188 29.9004V29.7656C83.7188 29.4531 83.6797 29.1582 83.6016 28.8809C83.5273 28.5996 83.4141 28.3516 83.2617 28.1367C83.1133 27.918 82.9258 27.7461 82.6992 27.6211C82.4766 27.4961 82.2148 27.4336 81.9141 27.4336C81.6172 27.4336 81.3555 27.4961 81.1289 27.6211C80.9062 27.7461 80.7188 27.918 80.5664 28.1367C80.418 28.3516 80.3066 28.5996 80.2324 28.8809C80.1582 29.1582 80.1211 29.4531 80.1211 29.7656ZM85.8809 29.9004V29.7656C85.8809 29.3086 85.9473 28.8848 86.0801 28.4941C86.2129 28.0996 86.4043 27.7578 86.6543 27.4688C86.9043 27.1758 87.207 26.9492 87.5625 26.7891C87.918 26.625 88.3164 26.543 88.7578 26.543C89.2031 26.543 89.6035 26.625 89.959 26.7891C90.3184 26.9492 90.623 27.1758 90.873 27.4688C91.127 27.7578 91.3203 28.0996 91.4531 28.4941C91.5859 28.8848 91.6523 29.3086 91.6523 29.7656V29.9004C91.6523 30.3574 91.5859 30.7812 91.4531 31.1719C91.3203 31.5625 91.127 31.9043 90.873 32.1973C90.623 32.4863 90.3203 32.7129 89.9648 32.877C89.6133 33.0371 89.2148 33.1172 88.7695 33.1172C88.3242 33.1172 87.9238 33.0371 87.5684 32.877C87.2129 32.7129 86.9082 32.4863 86.6543 32.1973C86.4043 31.9043 86.2129 31.5625 86.0801 31.1719C85.9473 30.7812 85.8809 30.3574 85.8809 29.9004ZM86.9648 29.7656V29.9004C86.9648 30.2168 87.002 30.5156 87.0762 30.7969C87.1504 31.0742 87.2617 31.3203 87.4102 31.5352C87.5625 31.75 87.752 31.9199 87.9785 32.0449C88.2051 32.166 88.4688 32.2266 88.7695 32.2266C89.0664 32.2266 89.3262 32.166 89.5488 32.0449C89.7754 31.9199 89.9629 31.75 90.1113 31.5352C90.2598 31.3203 90.3711 31.0742 90.4453 30.7969C90.5234 30.5156 90.5625 30.2168 90.5625 29.9004V29.7656C90.5625 29.4531 90.5234 29.1582 90.4453 28.8809C90.3711 28.5996 90.2578 28.3516 90.1055 28.1367C89.957 27.918 89.7695 27.7461 89.543 27.6211C89.3203 27.4961 89.0586 27.4336 88.7578 27.4336C88.4609 27.4336 88.1992 27.4961 87.9727 27.6211C87.75 27.7461 87.5625 27.918 87.4102 28.1367C87.2617 28.3516 87.1504 28.5996 87.0762 28.8809C87.002 29.1582 86.9648 29.4531 86.9648 29.7656ZM94.0957 28.0137V33H93.0117V26.6602H94.0371L94.0957 28.0137ZM93.8379 29.5898L93.3867 29.5723C93.3906 29.1387 93.4551 28.7383 93.5801 28.3711C93.7051 28 93.8809 27.6777 94.1074 27.4043C94.334 27.1309 94.6035 26.9199 94.916 26.7715C95.2324 26.6191 95.582 26.543 95.9648 26.543C96.2773 26.543 96.5586 26.5859 96.8086 26.6719C97.0586 26.7539 97.2715 26.8867 97.4473 27.0703C97.627 27.2539 97.7637 27.4922 97.8574 27.7852C97.9512 28.0742 97.998 28.4277 97.998 28.8457V33H96.9082V28.834C96.9082 28.502 96.8594 28.2363 96.7617 28.0371C96.6641 27.834 96.5215 27.6875 96.334 27.5977C96.1465 27.5039 95.916 27.457 95.6426 27.457C95.373 27.457 95.127 27.5137 94.9043 27.627C94.6855 27.7402 94.4961 27.8965 94.3359 28.0957C94.1797 28.2949 94.0566 28.5234 93.9668 28.7812C93.8809 29.0352 93.8379 29.3047 93.8379 29.5898Z" fill="#444444"/>
</svg>
