<svg width="64" height="63" viewBox="0 0 64 63" fill="none" xmlns="http://www.w3.org/2000/svg">
<g clip-path="url(#clip0_271_33)">
<path d="M33.3555 63H30.5381C30.466 62.9812 30.3929 62.9663 30.3191 62.9555C29.8513 62.9194 29.3825 62.8918 28.9157 62.8494C27.3424 62.7127 25.7829 62.4489 24.2527 62.0606C18.4576 60.6016 13.4497 57.7601 9.30575 53.4903C3.89443 47.9132 0.939565 41.2507 0.441154 33.5028C0.428338 33.3109 0.382413 33.1221 0.35144 32.9323V30.4396C0.381345 30.2488 0.429406 30.06 0.440086 29.8681C0.508208 28.6666 0.646573 27.47 0.854479 26.2843C1.38936 23.1544 2.41576 20.1272 3.89621 17.3132C7.14015 11.1678 11.8978 6.5605 18.1693 3.49132C22.0825 1.5828 26.2361 0.569168 30.5915 0.382557C32.8636 0.285855 35.1396 0.433386 37.3798 0.822577C40.5402 1.3578 43.5966 2.38138 46.4377 3.85606C52.565 7.05177 57.1906 11.7234 60.2644 17.8816C62.2517 21.8218 63.3388 26.1489 63.4481 30.5541C63.455 30.6363 63.4683 30.7178 63.4877 30.798V32.5782C63.4695 32.6669 63.456 32.7564 63.4471 32.8465C63.4268 33.2621 63.4214 33.6777 63.3937 34.0912C63.2731 35.8509 62.9911 37.5959 62.551 39.3047C61.075 45.0642 58.2116 50.0454 53.9 54.1636C48.2295 59.5774 41.4557 62.5109 33.5787 62.964C33.5037 62.9718 33.4292 62.9838 33.3555 63ZM18.6531 31.6642C18.6531 33.29 18.6531 34.9179 18.6531 36.5479C18.6434 38.1423 18.7814 39.7341 19.0653 41.3033C19.3689 43.0342 19.9368 44.709 20.7496 46.2697C21.8796 48.3903 23.4624 50.0793 25.6166 51.2096C27.0906 51.9687 28.7002 52.4334 30.3544 52.5774C32.047 52.7572 33.7577 52.6681 35.4221 52.3134C38.4243 51.6517 40.8114 50.0793 42.5298 47.5336C43.4216 46.2114 44.0389 44.7652 44.4832 43.2426C45.0995 41.122 45.3377 38.9558 45.3451 36.761C45.358 33.4551 45.3451 30.148 45.3451 26.841C45.3564 25.1451 45.2026 23.4521 44.8859 21.7855C44.5452 20.0626 44.0037 18.4085 43.1568 16.8616C41.8954 14.5618 40.1086 12.8155 37.6885 11.7435C36.3251 11.1514 34.869 10.7971 33.3843 10.696C31.7647 10.5508 30.1322 10.6538 28.5441 11.0013C26.1453 11.5516 24.0968 12.6978 22.4563 14.5374C21.2911 15.8437 20.4719 17.3493 19.876 18.9821C19.0397 21.2787 18.7012 23.6633 18.6584 26.0914C18.6275 27.9501 18.6531 29.8077 18.6531 31.6642Z" fill="black"/>
<path d="M18.5794 31.6643C18.5794 29.8077 18.5538 27.9533 18.5858 26.0946C18.6275 23.6665 18.966 21.2819 19.8034 18.9853C20.3983 17.3525 21.2185 15.8469 22.3837 14.5406C24.0178 12.6978 26.0716 11.5548 28.4693 11.0014C30.0574 10.6535 31.6899 10.5501 33.3096 10.6949C34.7943 10.796 36.2503 11.1504 37.6137 11.7425C40.0371 12.8155 41.8239 14.5618 43.0841 16.8616C43.9311 18.4085 44.4726 20.0626 44.8122 21.7856C45.1299 23.4519 45.2837 25.1451 45.2714 26.841C45.2714 30.1481 45.2821 33.4551 45.2714 36.7611C45.2629 38.9559 45.0258 41.1252 44.4096 43.2426C43.9663 44.7652 43.349 46.2114 42.4572 47.5336C40.7388 50.0783 38.3517 51.6518 35.3484 52.3134C33.6844 52.668 31.974 52.7571 30.2817 52.5774C28.6272 52.4335 27.0172 51.9688 25.5429 51.2096C23.3898 50.0794 21.8048 48.3924 20.677 46.2697C19.8642 44.709 19.2963 43.0343 18.9927 41.3033C18.705 39.7345 18.5638 38.1426 18.5709 36.548C18.5709 34.9222 18.5709 33.2943 18.5709 31.6643H18.5794ZM40.0467 24.2422L39.9975 24.2232C39.9004 24.3355 39.8021 24.4469 39.7049 24.5603L26.1538 40.3523C25.5995 40.9969 25.0506 41.6469 24.4877 42.2841C24.4288 42.3427 24.3868 42.4159 24.3662 42.4961C24.3455 42.5763 24.3469 42.6606 24.3702 42.74C24.4749 43.2548 24.6265 43.7591 24.8231 44.2467C25.4244 45.658 26.3578 46.7585 27.8071 47.3735C27.9556 47.4371 28.1019 47.5071 28.2514 47.5707C30.1012 48.3574 32.0077 48.6565 34.0027 48.2472C35.9412 47.8496 37.4343 46.8412 38.4308 45.1289C38.9322 44.2509 39.3055 43.3066 39.5394 42.3244C39.9217 40.7849 40.0542 39.2167 40.0552 37.6358C40.0552 33.2533 40.0552 28.8708 40.0552 24.4882L40.0467 24.2422ZM23.9003 35.424C24.0189 35.3392 24.0947 35.2894 24.1662 35.2343L36.0694 26.2006C37.304 25.2633 38.5386 24.3267 39.7733 23.3908C39.8801 23.3092 39.9591 23.2381 39.9292 23.0791C39.8224 22.5214 39.7519 21.9573 39.6312 21.4038C39.3992 20.2636 38.973 19.1711 38.371 18.1731C37.4492 16.6781 36.1452 15.691 34.4278 15.2658C32.78 14.8469 31.0513 14.856 29.4081 15.2923C27.8173 15.6947 26.4518 16.706 25.6102 18.1053C25.1609 18.8369 24.8115 19.6245 24.571 20.4475C24.0861 22.0697 23.9067 23.7344 23.9024 25.4192C23.8939 28.6488 23.9024 31.8784 23.9024 35.1081L23.9003 35.424Z" fill="white"/>
<path d="M39.9901 24.2263C39.8918 24.3387 39.7936 24.45 39.6964 24.5635L26.1325 40.3522C25.5782 40.9969 25.0292 41.6468 24.4664 42.2841C24.4077 42.3428 24.3658 42.416 24.3452 42.4962C24.3245 42.5763 24.3258 42.6605 24.3489 42.74C24.4546 43.2546 24.6061 43.7588 24.8017 44.2467C25.403 45.6579 26.3365 46.7585 27.7858 47.3735C27.9353 47.4371 28.0816 47.5071 28.2301 47.5707C30.0799 48.3574 31.9863 48.6564 33.9825 48.2471C35.9199 47.8495 37.414 46.8412 38.4094 45.1288C38.9112 44.2509 39.2848 43.3066 39.5191 42.3244C39.9015 40.7848 40.0328 39.2167 40.0339 37.6358C40.0339 33.2533 40.0339 28.8707 40.0339 24.4882V24.2443L39.9901 24.2263Z" fill="black"/>
<path d="M39.7775 23.3908C39.8844 23.3092 39.9634 23.2381 39.9335 23.0791C39.8267 22.5214 39.7562 21.9573 39.6366 21.4038C39.4037 20.2637 38.9772 19.1712 38.3752 18.1731C37.4535 16.6781 36.1495 15.691 34.4321 15.2658C32.786 14.8478 31.0593 14.8569 29.4177 15.2923C27.8269 15.6947 26.4614 16.706 25.6198 18.1053C25.1706 18.8369 24.8211 19.6245 24.5806 20.4475C24.0968 22.0697 23.9163 23.7344 23.9121 25.4192C23.9035 28.6488 23.9121 31.8784 23.9121 35.1081V35.4209C24.0306 35.336 24.1064 35.2862 24.178 35.2311L36.0822 26.1974C37.3111 25.2622 38.5429 24.3267 39.7775 23.3908Z" fill="black"/>
</g>
<defs>
<clipPath id="clip0_271_33">
<rect width="63.133" height="62.6461" fill="white" transform="translate(0.354675 0.353943)"/>
</clipPath>
</defs>
</svg>
