<svg width="144" height="63" viewBox="0 0 144 63" fill="none" xmlns="http://www.w3.org/2000/svg">
<g clip-path="url(#clip0_271_31)">
<path d="M33.3555 63H30.5381C30.4659 62.9812 30.3929 62.9663 30.3191 62.9555C29.8513 62.9194 29.3825 62.8919 28.9157 62.8494C27.3424 62.7127 25.7829 62.4489 24.2527 62.0606C18.4576 60.6016 13.4497 57.7601 9.30575 53.4903C3.89443 47.9132 0.939565 41.2507 0.441154 33.5028C0.428338 33.3109 0.382413 33.1221 0.35144 32.9323V30.4396C0.381345 30.2488 0.429406 30.06 0.440086 29.8681C0.508208 28.6666 0.646573 27.47 0.854479 26.2843C1.38936 23.1544 2.41576 20.1272 3.89621 17.3132C7.14015 11.1678 11.8978 6.5605 18.1693 3.49132C22.0825 1.5828 26.2361 0.569168 30.5915 0.382557C32.8636 0.285855 35.1396 0.433386 37.3798 0.822577C40.5402 1.3578 43.5966 2.38138 46.4377 3.85606C52.565 7.05177 57.1906 11.7234 60.2644 17.8816C62.2517 21.8218 63.3388 26.1489 63.4481 30.5541C63.455 30.6363 63.4683 30.7178 63.4877 30.798V32.5782C63.4695 32.6669 63.456 32.7564 63.4471 32.8465C63.4268 33.2621 63.4214 33.6777 63.3937 34.0912C63.2731 35.8509 62.9911 37.5959 62.551 39.3047C61.075 45.0642 58.2116 50.0454 53.9 54.1636C48.2295 59.5774 41.4558 62.5109 33.5787 62.964C33.5037 62.9718 33.4292 62.9838 33.3555 63V63ZM18.6531 31.6642C18.6531 33.29 18.6531 34.9179 18.6531 36.5479C18.6433 38.1423 18.7814 39.7341 19.0653 41.3033C19.3689 43.0342 19.9368 44.709 20.7496 46.2697C21.8796 48.3903 23.4624 50.0793 25.6166 51.2096C27.0906 51.9687 28.7002 52.4334 30.3544 52.5774C32.047 52.7572 33.7577 52.6681 35.4221 52.3134C38.4243 51.6517 40.8114 50.0793 42.5298 47.5336C43.4216 46.2114 44.0389 44.7652 44.4832 43.2426C45.0995 41.122 45.3377 38.9558 45.3451 36.761C45.358 33.4551 45.3451 30.148 45.3451 26.841C45.3564 25.1451 45.2026 23.4521 44.8859 21.7855C44.5452 20.0626 44.0037 18.4085 43.1568 16.8616C41.8954 14.5618 40.1086 12.8155 37.6885 11.7435C36.3251 11.1514 34.869 10.7971 33.3843 10.696C31.7647 10.5508 30.1322 10.6538 28.5441 11.0013C26.1453 11.5516 24.0968 12.6978 22.4563 14.5374C21.2911 15.8437 20.4719 17.3493 19.876 18.9821C19.0397 21.2787 18.7012 23.6633 18.6584 26.0914C18.6275 27.9501 18.6531 29.8077 18.6531 31.6642Z" fill="black"/>
<path d="M18.5794 31.6643C18.5794 29.8077 18.5538 27.9533 18.5858 26.0946C18.6275 23.6665 18.966 21.2819 19.8034 18.9853C20.3983 17.3525 21.2185 15.8469 22.3837 14.5406C24.0178 12.6978 26.0716 11.5548 28.4693 11.0014C30.0574 10.6535 31.6899 10.5501 33.3096 10.6949C34.7943 10.796 36.2503 11.1504 37.6137 11.7425C40.0371 12.8155 41.8239 14.5618 43.0841 16.8616C43.9311 18.4085 44.4726 20.0626 44.8122 21.7856C45.1299 23.4519 45.2837 25.1451 45.2714 26.841C45.2714 30.1481 45.2821 33.4551 45.2714 36.7611C45.2629 38.9559 45.0258 41.1252 44.4096 43.2426C43.9663 44.7652 43.349 46.2114 42.4572 47.5336C40.7388 50.0783 38.3517 51.6518 35.3484 52.3134C33.6844 52.668 31.974 52.7571 30.2817 52.5774C28.6272 52.4335 27.0172 51.9688 25.5429 51.2096C23.3898 50.0794 21.8048 48.3924 20.677 46.2697C19.8642 44.709 19.2963 43.0343 18.9927 41.3033C18.705 39.7345 18.5638 38.1426 18.5709 36.548C18.5709 34.9222 18.5709 33.2943 18.5709 31.6643H18.5794ZM40.0467 24.2422L39.9975 24.2232C39.9004 24.3355 39.8021 24.4469 39.7049 24.5603L26.1538 40.3523C25.5995 40.9969 25.0506 41.6469 24.4877 42.2841C24.4288 42.3427 24.3868 42.4159 24.3662 42.4961C24.3455 42.5763 24.3469 42.6606 24.3702 42.74C24.4749 43.2548 24.6265 43.7591 24.8231 44.2467C25.4244 45.658 26.3578 46.7585 27.8071 47.3735C27.9556 47.4371 28.1019 47.5071 28.2514 47.5707C30.1012 48.3574 32.0077 48.6565 34.0027 48.2472C35.9412 47.8496 37.4343 46.8412 38.4308 45.1289C38.9322 44.2509 39.3054 43.3066 39.5394 42.3244C39.9217 40.7849 40.0542 39.2167 40.0552 37.6358C40.0552 33.2533 40.0552 28.8708 40.0552 24.4882L40.0467 24.2422ZM23.9003 35.424C24.0189 35.3392 24.0947 35.2894 24.1662 35.2343L36.0694 26.2006C37.304 25.2633 38.5386 24.3267 39.7733 23.3908C39.8801 23.3092 39.9591 23.2381 39.9292 23.0791C39.8224 22.5214 39.7519 21.9573 39.6312 21.4038C39.3992 20.2636 38.973 19.1711 38.3709 18.1731C37.4492 16.6781 36.1452 15.691 34.4278 15.2658C32.78 14.8469 31.0513 14.856 29.4081 15.2923C27.8173 15.6947 26.4518 16.706 25.6102 18.1053C25.1609 18.8369 24.8115 19.6245 24.571 20.4475C24.0861 22.0697 23.9067 23.7344 23.9024 25.4192C23.8939 28.6488 23.9024 31.8784 23.9024 35.1081L23.9003 35.424Z" fill="white"/>
<path d="M39.9901 24.2263C39.8918 24.3387 39.7936 24.45 39.6964 24.5635L26.1325 40.3522C25.5782 40.9969 25.0292 41.6468 24.4664 42.2841C24.4077 42.3428 24.3658 42.416 24.3452 42.4962C24.3245 42.5763 24.3258 42.6605 24.3489 42.74C24.4546 43.2546 24.6061 43.7588 24.8017 44.2467C25.403 45.6579 26.3365 46.7585 27.7858 47.3735C27.9353 47.4371 28.0816 47.5071 28.2301 47.5707C30.0799 48.3574 31.9863 48.6564 33.9825 48.2471C35.9199 47.8495 37.414 46.8412 38.4094 45.1288C38.9112 44.2509 39.2848 43.3066 39.5191 42.3244C39.9015 40.7848 40.0328 39.2167 40.0339 37.6358C40.0339 33.2533 40.0339 28.8707 40.0339 24.4882V24.2443L39.9901 24.2263Z" fill="black"/>
<path d="M39.7775 23.3908C39.8844 23.3092 39.9634 23.2381 39.9335 23.0791C39.8267 22.5214 39.7562 21.9573 39.6366 21.4038C39.4037 20.2637 38.9772 19.1712 38.3752 18.1731C37.4535 16.6781 36.1495 15.691 34.4321 15.2658C32.786 14.8478 31.0593 14.8569 29.4177 15.2923C27.8269 15.6947 26.4614 16.706 25.6198 18.1053C25.1706 18.8369 24.8211 19.6245 24.5806 20.4475C24.0968 22.0697 23.9163 23.7344 23.9121 25.4192C23.9035 28.6488 23.9121 31.8784 23.9121 35.1081V35.4209C24.0306 35.336 24.1064 35.2862 24.178 35.2311L36.0822 26.1974C37.3111 25.2622 38.5429 24.3267 39.7775 23.3908Z" fill="black"/>
</g>
<path d="M72 32.5618V6.01685H80.5609C81.9404 6.01685 83.2117 6.15193 84.3748 6.42211C85.5379 6.66527 86.5387 7.09756 87.3773 7.71896C88.2428 8.31336 88.9055 9.09687 89.3653 10.0695C89.8522 11.0421 90.0957 12.2444 90.0957 13.6764C90.0957 15.7297 89.5817 17.3778 88.5539 18.6206C87.5531 19.8634 86.2006 20.7415 84.4966 21.2549L91.0288 32.5618H86.4441L80.3987 21.7817H76.0573V32.5618H72ZM76.0573 18.499H80.0741C82.0216 18.499 83.5093 18.1073 84.5371 17.3238C85.565 16.5132 86.0789 15.2974 86.0789 13.6764C86.0789 12.0553 85.565 10.9206 84.5371 10.2721C83.5093 9.5967 82.0216 9.25898 80.0741 9.25898H76.0573V18.499Z" fill="black"/>
<path d="M97.9717 32.5618V6.01685H114.688V9.42108H102.029V16.9996H112.74V20.4038H102.029V29.1576H115.094V32.5618H97.9717Z" fill="black"/>
<path d="M121.639 32.5618V29.1576H128.131V9.42108H121.639V6.01685H138.68V9.42108H132.188V29.1576H138.68V32.5618H121.639Z" fill="black"/>
<path d="M79.3865 57.3157C78.3362 57.3157 77.3634 57.1144 76.4681 56.7119C75.5727 56.3093 74.7893 55.7317 74.1178 54.9791C73.4635 54.209 72.947 53.2727 72.5682 52.17C72.1894 51.0499 72 49.7897 72 48.3896C72 47.0069 72.1894 45.7642 72.5682 44.6616C72.947 43.559 73.4721 42.6226 74.1436 41.8525C74.8151 41.0824 75.6158 40.4961 76.5456 40.0935C77.4753 39.6735 78.4912 39.4635 79.5932 39.4635C80.609 39.4635 81.5044 39.6735 82.2792 40.0935C83.0712 40.5136 83.7169 41.0037 84.2162 41.5637L83.0023 42.9551C82.5547 42.4826 82.0553 42.1063 81.5044 41.8263C80.9534 41.5287 80.3163 41.3799 79.5932 41.3799C78.7839 41.3799 78.0435 41.5462 77.372 41.8788C76.7177 42.1938 76.1582 42.6576 75.6933 43.2702C75.2284 43.8653 74.8668 44.5916 74.6085 45.4492C74.3503 46.3068 74.2211 47.2694 74.2211 48.3371C74.2211 49.4222 74.3503 50.4023 74.6085 51.2774C74.8668 52.135 75.2284 52.8701 75.6933 53.4827C76.1582 54.0953 76.7177 54.5678 77.372 54.9004C78.0435 55.2329 78.7839 55.3992 79.5932 55.3992C80.368 55.3992 81.0567 55.2329 81.6593 54.9004C82.2792 54.5678 82.8646 54.0953 83.4156 53.4827L84.6294 54.8216C83.9579 55.6092 83.2003 56.2218 82.3567 56.6593C81.513 57.0969 80.5229 57.3157 79.3865 57.3157Z" fill="black"/>
<path d="M87.6059 57.3157V38.6234H89.7237V43.7165L89.5946 46.7356H89.6721C90.3264 46.018 91.0237 45.4229 91.7641 44.9504C92.5217 44.4778 93.3912 44.2416 94.3726 44.2416C95.8706 44.2416 96.9639 44.6791 97.6526 45.5542C98.3586 46.4118 98.7115 47.6895 98.7115 49.3872V57.3157H96.5937V49.676C96.5937 48.4683 96.3699 47.5757 95.9222 46.9981C95.4746 46.4031 94.7342 46.1055 93.7011 46.1055C93.3223 46.1055 92.9693 46.158 92.6422 46.2631C92.3323 46.3506 92.0223 46.4906 91.7124 46.6831C91.4025 46.8756 91.084 47.1207 90.7568 47.4182C90.4297 47.6982 90.0853 48.0308 89.7237 48.4158V57.3157H87.6059Z" fill="black"/>
<path d="M105.877 57.3371C105.292 57.3371 104.741 57.2496 104.224 57.0745C103.708 56.917 103.251 56.6895 102.855 56.392C102.477 56.0769 102.175 55.7006 101.952 55.2631C101.728 54.808 101.616 54.2917 101.616 53.7141C101.616 52.9965 101.779 52.3752 102.106 51.8501C102.451 51.3076 102.985 50.8438 103.708 50.4587C104.448 50.0737 105.395 49.7586 106.549 49.5136C107.702 49.2686 109.088 49.076 110.707 48.936C110.69 48.4985 110.621 48.0872 110.5 47.7021C110.38 47.3171 110.19 46.9845 109.932 46.7045C109.674 46.407 109.329 46.1707 108.899 45.9957C108.486 45.8206 107.978 45.7331 107.375 45.7331C106.549 45.7331 105.757 45.8994 104.999 46.2319C104.242 46.547 103.57 46.8883 102.985 47.2558L102.158 45.7856C102.468 45.5756 102.83 45.3656 103.243 45.1556C103.673 44.928 104.121 44.7268 104.586 44.5517C105.068 44.3767 105.576 44.2367 106.11 44.1317C106.643 44.0092 107.186 43.9479 107.737 43.9479C109.459 43.9479 110.733 44.4292 111.559 45.3918C112.403 46.337 112.825 47.6059 112.825 49.1986V57.022H111.094L110.913 55.2893H110.836C110.13 55.8494 109.347 56.3307 108.486 56.7332C107.642 57.1358 106.773 57.3371 105.877 57.3371ZM106.445 55.6044C107.169 55.6044 107.875 55.4468 108.563 55.1318C109.269 54.7993 109.984 54.3267 110.707 53.7141V50.3537C109.364 50.4587 108.236 50.6075 107.324 50.8C106.428 50.9925 105.705 51.2288 105.154 51.5088C104.62 51.7714 104.242 52.0777 104.018 52.4277C103.794 52.7602 103.682 53.1365 103.682 53.5566C103.682 53.9241 103.759 54.2392 103.914 54.5017C104.069 54.7467 104.267 54.9568 104.508 55.1318C104.767 55.2893 105.059 55.4118 105.387 55.4993C105.731 55.5693 106.084 55.6044 106.445 55.6044Z" fill="black"/>
<path d="M121.252 57.3371V46.337H115.415V44.578H123.37V50.9575V57.3371H121.252ZM122.079 41.9002C121.597 41.9002 121.192 41.7514 120.865 41.4538C120.538 41.1388 120.374 40.7275 120.374 40.2199C120.374 39.7124 120.538 39.3098 120.865 39.0123C121.192 38.6973 121.597 38.5397 122.079 38.5397C122.561 38.5397 122.965 38.6973 123.293 39.0123C123.62 39.3098 123.783 39.7124 123.783 40.2199C123.783 40.7275 123.62 41.1388 123.293 41.4538C122.965 41.7514 122.561 41.9002 122.079 41.9002Z" fill="black"/>
<path d="M127.685 57.3371V44.578H129.441L129.622 46.757H129.725C130.379 46.0394 131.085 45.4443 131.843 44.9718C132.6 44.4992 133.47 44.2629 134.451 44.2629C135.949 44.2629 137.043 44.7005 137.731 45.5756C138.437 46.4332 138.79 47.7109 138.79 49.4086V57.3371H136.673V49.6974C136.673 48.4897 136.449 47.5971 136.001 47.0195C135.553 46.4245 134.813 46.1269 133.78 46.1269C133.401 46.1269 133.048 46.1794 132.721 46.2844C132.411 46.372 132.101 46.512 131.791 46.7045C131.481 46.897 131.163 47.1421 130.836 47.4396C130.508 47.7196 130.164 48.0522 129.803 48.4372V57.3371H127.685Z" fill="black"/>
<defs>
<clipPath id="clip0_271_31">
<rect width="63.133" height="62.6461" fill="white" transform="translate(0.354675 0.353943)"/>
</clipPath>
</defs>
</svg>
