<svg width="58" height="42" viewBox="0 0 58 42" fill="none" xmlns="http://www.w3.org/2000/svg">
<path d="M48.125 3.5625C48.125 3.5625 48.125 3.5625 48.0312 3.5625C44.5625 1.96875 40.7188 0.75 36.875 0.09375C36.7812 0.09375 36.7812 0 36.7812 0L36.6875 0.09375C36.125 1.03125 35.6562 2.0625 35.2812 3C33.2188 2.71875 31.0625 2.53125 28.9062 2.53125C26.75 2.53125 24.6875 2.71875 22.625 3C22.25 2.0625 21.7812 1.03125 21.2188 0.09375H21.125C21.0312 0.09375 21.0312 0.09375 21.0312 0.09375C17.1875 0.75 13.3438 1.96875 9.875 3.5625C9.78125 3.5625 9.78125 3.5625 9.78125 3.5625C2.65625 14.25 0.6875 24.6562 1.625 34.9688C1.625 34.9688 1.625 35.0625 1.71875 35.0625C5.75 38.1562 10.4375 40.5 15.5 42C15.5938 42 15.5938 42 15.6875 42C16.7188 40.5 17.6562 39 18.5 37.4062V37.3125C18.5 37.2188 18.4062 37.2188 18.4062 37.125C16.9062 36.5625 15.4062 35.9062 14.0938 35.0625C14 35.0625 14 35.0625 14 34.9688C14 34.875 14 34.875 14.0938 34.7812C14.375 34.5938 14.6562 34.4062 14.9375 34.125C14.9375 34.125 14.9375 34.125 15.0312 34.125C15.0312 34.125 15.0312 34.125 15.125 34.125C24.125 38.25 33.875 38.25 42.7812 34.125H42.875H42.9688C43.25 34.4062 43.5312 34.5938 43.8125 34.7812C43.9062 34.875 43.9062 34.875 43.9062 34.9688C43.9062 35.0625 43.9062 35.0625 43.8125 35.0625C42.4062 35.9062 41 36.5625 39.5 37.125C39.4062 37.2188 39.4062 37.2188 39.4062 37.3125V37.4062C40.25 39 41.1875 40.5 42.2188 42C42.2188 42 42.3125 42 42.4062 42C47.375 40.5 52.0625 38.1562 56.1875 35.0625C56.2812 35.0625 56.2812 34.9688 56.2812 34.9688C57.4062 23.0625 54.3125 12.75 48.125 3.5625ZM19.8125 28.6875C17.0938 28.6875 14.8438 26.1562 14.8438 23.1562C14.8438 20.0625 17.0938 17.625 19.8125 17.625C22.625 17.625 24.7812 20.0625 24.7812 23.1562C24.7812 26.1562 22.5312 28.6875 19.8125 28.6875ZM38.0938 28.6875C35.375 28.6875 33.2188 26.1562 33.2188 23.1562C33.2188 20.0625 35.375 17.625 38.0938 17.625C40.9062 17.625 43.1562 20.0625 43.0625 23.1562C43.0625 26.1562 40.9062 28.6875 38.0938 28.6875Z" fill="black"/>
</svg>
