<svg viewBox="0 0 36 36" fill="currentColor" xmlns="http://www.w3.org/2000/svg" width="32" height="32" class="fill-current"><path d="M18 0C8.06 0 0 8.058 0 18c0 7.953 5.157 14.7 12.31 17.08.9.165 1.23-.39 1.23-.868 0-.427-.017-1.56-.025-3.06-5.007 1.086-6.064-2.415-6.064-2.415-.818-2.078-1.999-2.632-1.999-2.632-1.633-1.118.125-1.094.125-1.094 1.806.127 2.757 1.855 2.757 1.855 1.605 2.75 4.213 1.956 5.238 1.495.163-1.163.628-1.956 1.143-2.406-3.997-.454-8.199-1.999-8.199-8.896 0-1.966.701-3.572 1.852-4.83-.185-.456-.803-2.285.177-4.764 0 0 1.511-.484 4.95 1.845 1.436-.4 2.975-.599 4.506-.606 1.528.007 3.068.207 4.507.606 3.436-2.329 4.944-1.845 4.944-1.845.983 2.479.365 4.308.179 4.764 1.154 1.258 1.85 2.864 1.85 4.83 0 6.915-4.208 8.436-8.218 8.882.646.556 1.222 1.654 1.222 3.333 0 2.407-.022 4.348-.022 4.938 0 .482.324 1.041 1.238.866C30.847 32.693 36 25.95 36 18c0-9.942-8.06-18-18-18"></path></svg>