<svg width="45" height="37" viewBox="0 0 45 37" fill="none" xmlns="http://www.w3.org/2000/svg">
<path d="M17.4375 24.8438C17.4375 22.875 16.4062 19.6875 13.9688 19.6875C11.5312 19.6875 10.5 22.875 10.5 24.8438C10.5 26.8125 11.5312 30 13.9688 30C16.4062 30 17.4375 26.8125 17.4375 24.8438ZM45 20.1562C45 16.2188 43.875 12.4688 41.3438 9.375C41.8125 7.96875 42 6.46875 42 4.875C42 2.90625 41.5312 1.875 40.6875 0C36.4688 0 33.75 0.84375 30.5625 3.375C28.125 2.71875 25.5 2.4375 22.9688 2.4375C20.25 2.4375 17.4375 2.8125 14.7188 3.375C11.4375 0.84375 8.71875 0 4.5 0C3.5625 1.875 3.09375 2.90625 3.09375 4.875C3.09375 6.46875 3.375 7.96875 3.84375 9.46875C1.21875 12.4688 0 16.2188 0 20.1562C0 23.1562 0.46875 26.3438 1.875 29.0625C5.53125 36.2812 15.9375 36 22.9688 36C30 36 39.75 36.1875 43.3125 29.0625C44.625 26.25 45 23.1562 45 20.1562ZM38.9062 24.8438C38.9062 33.0938 31.4062 34.3125 24.8438 34.3125H20.25C13.6875 34.3125 6.1875 33.0938 6.1875 24.8438C6.1875 20.7188 8.71875 17.1562 13.125 17.1562C14.9062 17.1562 16.5938 17.4375 18.375 17.7188C19.7812 17.9062 21.0938 18 22.5938 18C24 18 25.4062 17.9062 26.8125 17.7188C28.5938 17.4375 30.2812 17.1562 32.0625 17.1562C36.4688 17.1562 38.9062 20.7188 38.9062 24.8438ZM31.2188 19.6875C28.7812 19.6875 27.75 22.875 27.75 24.8438C27.75 26.8125 28.7812 30 31.2188 30C33.5625 30 34.5938 26.8125 34.5938 24.8438C34.5938 22.875 33.5625 19.6875 31.2188 19.6875Z" fill="black"/>
</svg>
