<svg width="52" height="36" viewBox="0 0 52 36" fill="none" xmlns="http://www.w3.org/2000/svg">
<path d="M50.4688 5.71875C49.9062 3.46875 48.125 1.6875 45.9688 1.125C41.9375 0 26 0 26 0C26 0 9.96875 0 5.9375 1.125C3.78125 1.6875 2 3.46875 1.4375 5.71875C0.3125 9.65625 0.3125 18.0938 0.3125 18.0938C0.3125 18.0938 0.3125 26.4375 1.4375 30.4688C2 32.7188 3.78125 34.4062 5.9375 34.9688C9.96875 36 26 36 26 36C26 36 41.9375 36 45.9688 34.9688C48.125 34.4062 49.9062 32.7188 50.4688 30.4688C51.5938 26.4375 51.5938 18.0938 51.5938 18.0938C51.5938 18.0938 51.5938 9.65625 50.4688 5.71875ZM20.75 25.6875V10.5L34.0625 18.0938L20.75 25.6875Z" fill="black"/>
</svg>
