<svg width="35" height="35" viewBox="3 3 35 35" fill="none" xmlns="http://www.w3.org/2000/svg">
<g clip-path="url(#clip0)">
<path d="M20 3.625C10.6484 3.625 3.125 11.1484 3.125 20.5C3.125 29.8516 10.6484 37.375 20 37.375C29.3516 37.375 36.875 29.8516 36.875 20.5C36.875 11.1484 29.3516 3.625 20 3.625ZM20 34C12.5469 34 6.5 27.9531 6.5 20.5C6.5 13.0469 12.5469 7 20 7C27.4531 7 33.5 13.0469 33.5 20.5C33.5 27.9531 27.4531 34 20 34ZM25.9766 24.0859L22.3906 20.5L25.9766 16.9141C26.6094 16.2812 26.6094 15.2266 25.9766 14.5234C25.2734 13.8906 24.2188 13.8906 23.5859 14.5234L20 18.1094L16.4141 14.5234C15.7812 13.8906 14.7266 13.8906 14.0234 14.5234C13.3906 15.2266 13.3906 16.2812 14.0234 16.9141L17.6094 20.5L14.0234 24.0859C13.3906 24.7188 13.3906 25.7734 14.0234 26.4766C14.7266 27.1094 15.7812 27.1094 16.4141 26.4766L20 22.8906L23.5859 26.4766C24.2188 27.1094 25.2734 27.1094 25.9766 26.4766C26.6094 25.7734 26.6094 24.7188 25.9766 24.0859Z" fill="#757575"/>
</g>
<defs>
<clipPath id="clip0">
<rect width="40" height="40" fill="white"/>
</clipPath>
</defs>
</svg>
