<svg xmlns="http://www.w3.org/2000/svg" xmlns:xlink="http://www.w3.org/1999/xlink" xmlns:serif="http://www.serif.com/" width="100%" height="100%" viewBox="0 0 430 230" version="1.1" xml:space="preserve" style="fill-rule:evenodd;clip-rule:evenodd;stroke-linecap:round;stroke-miterlimit:1.5;"><rect x="30.58" y="11.395" width="187.718" height="187.119" style="fill:#fff;"/><g><path d="M218.12,199.271l-190,0l-0,-190l-21.229,21.229l0,190l190,0l21.229,-21.229Z" style="fill:#1a367c;stroke:#1a367c;stroke-width:8px;"/><path d="M218.443,42.11l0,-33.012l-190.022,-0l0,189.982l190.022,-0l0,-53" style="fill:none;stroke:#1a367c;stroke-width:8px;stroke-linejoin:round;"/><g><path d="M91.421,79.13c1.133,-0 2.083,0.383 2.85,1.15c0.767,0.767 1.15,1.717 1.15,2.85l0,44.1c0,1.133 -0.383,2.1 -1.15,2.9c-0.767,0.8 -1.717,1.2 -2.85,1.2c-1.2,-0 -2.167,-0.4 -2.9,-1.2c-0.733,-0.8 -1.1,-1.767 -1.1,-2.9l0,-9.5l1.9,-0.2c0,1.467 -0.5,3.067 -1.5,4.8c-1,1.733 -2.367,3.35 -4.1,4.85c-1.733,1.5 -3.783,2.733 -6.15,3.7c-2.367,0.967 -4.917,1.45 -7.65,1.45c-4.533,-0 -8.6,-1.183 -12.2,-3.55c-3.6,-2.367 -6.45,-5.583 -8.55,-9.65c-2.1,-4.067 -3.15,-8.7 -3.15,-13.9c0,-5.267 1.05,-9.917 3.15,-13.95c2.1,-4.033 4.95,-7.2 8.55,-9.5c3.6,-2.3 7.6,-3.45 12,-3.45c2.867,-0 5.533,0.467 8,1.4c2.467,0.933 4.617,2.2 6.45,3.8c1.833,1.6 3.267,3.367 4.3,5.3c1.033,1.933 1.55,3.867 1.55,5.8l-2.6,-0.6l0,-10.9c0,-1.133 0.367,-2.083 1.1,-2.85c0.733,-0.767 1.7,-1.15 2.9,-1.15Zm-20.6,45.8c3.333,-0 6.283,-0.867 8.85,-2.6c2.567,-1.733 4.567,-4.083 6,-7.05c1.433,-2.967 2.15,-6.317 2.15,-10.05c0,-3.667 -0.717,-6.983 -2.15,-9.95c-1.433,-2.967 -3.433,-5.3 -6,-7c-2.567,-1.7 -5.517,-2.55 -8.85,-2.55c-3.267,-0 -6.183,0.833 -8.75,2.5c-2.567,1.667 -4.583,3.967 -6.05,6.9c-1.467,2.933 -2.2,6.3 -2.2,10.1c0,3.733 0.717,7.083 2.15,10.05c1.433,2.967 3.433,5.317 6,7.05c2.567,1.733 5.517,2.6 8.85,2.6Z" style="fill:#1d1d1d;fill-rule:nonzero;"/><path d="M133.221,78.33c3.4,-0 6.467,0.367 9.2,1.1c2.733,0.733 4.9,1.733 6.5,3c1.6,1.267 2.4,2.7 2.4,4.3c0,0.867 -0.3,1.7 -0.9,2.5c-0.6,0.8 -1.4,1.2 -2.4,1.2c-0.933,-0 -1.683,-0.167 -2.25,-0.5c-0.567,-0.333 -1.1,-0.767 -1.6,-1.3c-0.5,-0.533 -1.183,-1 -2.05,-1.4c-0.8,-0.467 -1.967,-0.833 -3.5,-1.1c-1.533,-0.267 -3.067,-0.4 -4.6,-0.4c-3.667,-0 -6.883,0.867 -9.65,2.6c-2.767,1.733 -4.95,4.067 -6.55,7c-1.6,2.933 -2.4,6.267 -2.4,10c0,3.733 0.767,7.067 2.3,10c1.533,2.933 3.667,5.267 6.4,7c2.733,1.733 5.9,2.6 9.5,2.6c2.333,-0 4.2,-0.2 5.6,-0.6c1.4,-0.4 2.567,-0.867 3.5,-1.4c1.2,-0.667 2.117,-1.333 2.75,-2c0.633,-0.667 1.483,-1 2.55,-1c1.133,-0 2.017,0.367 2.65,1.1c0.633,0.733 0.95,1.633 0.95,2.7c0,1.2 -0.833,2.467 -2.5,3.8c-1.667,1.333 -3.917,2.467 -6.75,3.4c-2.833,0.933 -6.05,1.4 -9.65,1.4c-5.067,-0 -9.5,-1.183 -13.3,-3.55c-3.8,-2.367 -6.75,-5.6 -8.85,-9.7c-2.1,-4.1 -3.15,-8.683 -3.15,-13.75c0,-5.067 1.083,-9.633 3.25,-13.7c2.167,-4.067 5.183,-7.3 9.05,-9.7c3.867,-2.4 8.367,-3.6 13.5,-3.6Z" style="fill:#1d1d1d;fill-rule:nonzero;"/><path d="M185.121,78.33c3.4,-0 6.467,0.367 9.2,1.1c2.733,0.733 4.9,1.733 6.5,3c1.6,1.267 2.4,2.7 2.4,4.3c0,0.867 -0.3,1.7 -0.9,2.5c-0.6,0.8 -1.4,1.2 -2.4,1.2c-0.933,-0 -1.683,-0.167 -2.25,-0.5c-0.567,-0.333 -1.1,-0.767 -1.6,-1.3c-0.5,-0.533 -1.183,-1 -2.05,-1.4c-0.8,-0.467 -1.967,-0.833 -3.5,-1.1c-1.533,-0.267 -3.067,-0.4 -4.6,-0.4c-3.667,-0 -6.883,0.867 -9.65,2.6c-2.767,1.733 -4.95,4.067 -6.55,7c-1.6,2.933 -2.4,6.267 -2.4,10c0,3.733 0.767,7.067 2.3,10c1.533,2.933 3.667,5.267 6.4,7c2.733,1.733 5.9,2.6 9.5,2.6c2.333,-0 4.2,-0.2 5.6,-0.6c1.4,-0.4 2.567,-0.867 3.5,-1.4c1.2,-0.667 2.117,-1.333 2.75,-2c0.633,-0.667 1.483,-1 2.55,-1c1.133,-0 2.017,0.367 2.65,1.1c0.633,0.733 0.95,1.633 0.95,2.7c0,1.2 -0.833,2.467 -2.5,3.8c-1.667,1.333 -3.917,2.467 -6.75,3.4c-2.833,0.933 -6.05,1.4 -9.65,1.4c-5.067,-0 -9.5,-1.183 -13.3,-3.55c-3.8,-2.367 -6.75,-5.6 -8.85,-9.7c-2.1,-4.1 -3.15,-8.683 -3.15,-13.75c0,-5.067 1.083,-9.633 3.25,-13.7c2.167,-4.067 5.183,-7.3 9.05,-9.7c3.867,-2.4 8.367,-3.6 13.5,-3.6Z" style="fill:#1d1d1d;fill-rule:nonzero;"/><path d="M218.821,131.33c-1.2,-0 -2.167,-0.4 -2.9,-1.2c-0.733,-0.8 -1.1,-1.767 -1.1,-2.9l0,-65.9c0,-1.133 0.367,-2.083 1.1,-2.85c0.733,-0.767 1.7,-1.15 2.9,-1.15c1.133,-0 2.083,0.383 2.85,1.15c0.767,0.767 1.15,1.717 1.15,2.85l0,65.9c0,1.133 -0.383,2.1 -1.15,2.9c-0.767,0.8 -1.717,1.2 -2.85,1.2Zm33.2,-52c1.067,-0 1.983,0.417 2.75,1.25c0.767,0.833 1.15,1.683 1.15,2.55c0,1.133 -0.533,2.133 -1.6,3l-32.4,28.3l-0.3,-9.3l27.6,-24.6c0.8,-0.8 1.733,-1.2 2.8,-1.2Zm1.1,51.9c-1.133,-0 -2.133,-0.433 -3,-1.3l-21.3,-22.7l6,-5.5l21.1,22.6c0.8,0.867 1.2,1.867 1.2,3c0,1.2 -0.467,2.15 -1.4,2.85c-0.933,0.7 -1.8,1.05 -2.6,1.05Z" style="fill:#1d1d1d;fill-rule:nonzero;"/><path d="M290.421,132.33c-5.333,-0 -10,-1.133 -14,-3.4c-4,-2.267 -7.117,-5.383 -9.35,-9.35c-2.233,-3.967 -3.35,-8.55 -3.35,-13.75c0,-5.8 1.15,-10.75 3.45,-14.85c2.3,-4.1 5.3,-7.233 9,-9.4c3.7,-2.167 7.617,-3.25 11.75,-3.25c3.067,-0 6.033,0.567 8.9,1.7c2.867,1.133 5.4,2.783 7.6,4.95c2.2,2.167 3.967,4.767 5.3,7.8c1.333,3.033 2.033,6.417 2.1,10.15c0,1.067 -0.4,1.967 -1.2,2.7c-0.8,0.733 -1.733,1.1 -2.8,1.1l-39.5,-0l-1.8,-6.9l38.5,-0l-1.6,1.4l0,-2.2c-0.267,-2.733 -1.183,-5.083 -2.75,-7.05c-1.567,-1.967 -3.467,-3.483 -5.7,-4.55c-2.233,-1.067 -4.583,-1.6 -7.05,-1.6c-2,-0 -3.983,0.35 -5.95,1.05c-1.967,0.7 -3.733,1.833 -5.3,3.4c-1.567,1.567 -2.833,3.583 -3.8,6.05c-0.967,2.467 -1.45,5.433 -1.45,8.9c0,3.867 0.783,7.267 2.35,10.2c1.567,2.933 3.75,5.25 6.55,6.95c2.8,1.7 6.067,2.55 9.8,2.55c2.333,-0 4.367,-0.3 6.1,-0.9c1.733,-0.6 3.233,-1.35 4.5,-2.25c1.267,-0.9 2.333,-1.817 3.2,-2.75c0.867,-0.6 1.7,-0.9 2.5,-0.9c1,-0 1.817,0.333 2.45,1c0.633,0.667 0.95,1.467 0.95,2.4c0,1.133 -0.533,2.133 -1.6,3c-1.867,2.067 -4.4,3.883 -7.6,5.45c-3.2,1.567 -6.6,2.35 -10.2,2.35Z" style="fill:#1d1d1d;fill-rule:nonzero;"/><path d="M349.521,78.33c4.533,-0 8.1,0.933 10.7,2.8c2.6,1.867 4.45,4.367 5.55,7.5c1.1,3.133 1.65,6.633 1.65,10.5l0,28.1c0,1.133 -0.383,2.1 -1.15,2.9c-0.767,0.8 -1.717,1.2 -2.85,1.2c-1.133,-0 -2.083,-0.4 -2.85,-1.2c-0.767,-0.8 -1.15,-1.767 -1.15,-2.9l0,-27.9c0,-2.533 -0.383,-4.817 -1.15,-6.85c-0.767,-2.033 -2.033,-3.667 -3.8,-4.9c-1.767,-1.233 -4.183,-1.85 -7.25,-1.85c-2.8,-0 -5.367,0.617 -7.7,1.85c-2.333,1.233 -4.2,2.867 -5.6,4.9c-1.4,2.033 -2.1,4.317 -2.1,6.85l0,27.9c0,1.133 -0.383,2.1 -1.15,2.9c-0.767,0.8 -1.717,1.2 -2.85,1.2c-1.133,-0 -2.083,-0.4 -2.85,-1.2c-0.767,-0.8 -1.15,-1.767 -1.15,-2.9l0,-43.6c0,-1.133 0.383,-2.083 1.15,-2.85c0.767,-0.767 1.717,-1.15 2.85,-1.15c1.2,-0 2.167,0.383 2.9,1.15c0.733,0.767 1.1,1.717 1.1,2.85l0,7.1l-2,2.2c0.333,-1.733 1.1,-3.483 2.3,-5.25c1.2,-1.767 2.7,-3.35 4.5,-4.75c1.8,-1.4 3.8,-2.517 6,-3.35c2.2,-0.833 4.5,-1.25 6.9,-1.25Z" style="fill:#1d1d1d;fill-rule:nonzero;"/><path d="M407.921,78.33c4.533,-0 8.1,0.933 10.7,2.8c2.6,1.867 4.45,4.367 5.55,7.5c1.1,3.133 1.65,6.633 1.65,10.5l0,28.1c0,1.133 -0.383,2.1 -1.15,2.9c-0.767,0.8 -1.717,1.2 -2.85,1.2c-1.133,-0 -2.083,-0.4 -2.85,-1.2c-0.767,-0.8 -1.15,-1.767 -1.15,-2.9l0,-27.9c0,-2.533 -0.383,-4.817 -1.15,-6.85c-0.767,-2.033 -2.033,-3.667 -3.8,-4.9c-1.767,-1.233 -4.183,-1.85 -7.25,-1.85c-2.8,-0 -5.367,0.617 -7.7,1.85c-2.333,1.233 -4.2,2.867 -5.6,4.9c-1.4,2.033 -2.1,4.317 -2.1,6.85l0,27.9c0,1.133 -0.383,2.1 -1.15,2.9c-0.767,0.8 -1.717,1.2 -2.85,1.2c-1.133,-0 -2.083,-0.4 -2.85,-1.2c-0.767,-0.8 -1.15,-1.767 -1.15,-2.9l0,-43.6c0,-1.133 0.383,-2.083 1.15,-2.85c0.767,-0.767 1.717,-1.15 2.85,-1.15c1.2,-0 2.167,0.383 2.9,1.15c0.733,0.767 1.1,1.717 1.1,2.85l0,7.1l-2,2.2c0.333,-1.733 1.1,-3.483 2.3,-5.25c1.2,-1.767 2.7,-3.35 4.5,-4.75c1.8,-1.4 3.8,-2.517 6,-3.35c2.2,-0.833 4.5,-1.25 6.9,-1.25Z" style="fill:#1d1d1d;fill-rule:nonzero;"/></g></g></svg>