<svg xmlns="http://www.w3.org/2000/svg" xmlns:xlink="http://www.w3.org/1999/xlink" width="150px" height="35px" viewBox="0 0 150 35" version="1.1">
    <title>avantis_logo</title>
    <defs>
        <polygon id="path--f4ah5g55t-2" points="0 0 19.8669096 0 19.8669096 23.5316432 0 23.5316432"/>
        <polygon id="path--f4ah5g55t-4" points="0 0 14.2558519 0 14.2558519 30.802312 0 30.802312"/>
        <polygon id="path--f4ah5g55t-6" points="0 0 16.7668145 0 16.7668145 23.531571 0 23.531571"/>
    </defs>
    <g id="Page-1" stroke="none" stroke-width="1" fill="none" fill-rule="evenodd">
        <g id="Avantis-Full" transform="translate(-160.000000, -93.000000)">
            <g id="1">
                <g id="BG" fill="url(#linearGradient--f4ah5g55t-1)" opacity="0.728306362">
                    <path d="M0,615 L1204,1311.5 C1221.66667,1318.5 1237.33333,1318.5 1251,1311.5 C1264.66667,1304.5 1487.66667,1175.66667 1920,925 L1920,0 L0,0 L0,615 Z"/>
                </g>
                <g id="Menu" transform="translate(160.000000, 80.000000)">
                    <g id="Avantis-Logo" transform="translate(0.000000, 13.000000)">
                        <path d="M13.8573407,4 L0,34 L2.42845273,34 L6.96090329,24.2209106 L19.300461,24.2209106 L23.6813104,34 L28.6040986,34 L15.071567,4 L13.8573407,4 Z M13.1854073,10.7039268 L18.4117522,22.3187184 L7.80710714,22.3187184 L13.1854073,10.7039268 Z" id="Fill-1" fill="#382C73"/>
                        <polygon id="Fill-2" fill="#382C73" points="47.3484962 11 39.9230331 28.2224151 32.1756509 11 27.6177504 11 37.9537685 34 39.4522132 34 49.3174114 11"/>
                        <g id="Group-16" transform="translate(52.523241, 0.309548)">
                            <g id="Group-5" transform="translate(0.000000, 10.805618)">
                                <mask id="mask--f4ah5g55t-3" fill="white">
                                    <use xlink:href="#path--f4ah5g55t-2"/>
                                </mask>
                                <g id="Clip-4"/>
                                <path d="M13.3390987,9.87686676 C12.6986907,10.083304 12.0361751,10.3182527 11.3522651,10.5831564 C10.6679984,10.8487819 9.99870794,11.1468888 9.344037,11.4785598 C8.68900949,11.8091481 8.06322109,12.1675261 7.46631524,12.5500846 C6.86940938,12.9333649 6.34524474,13.3455176 5.89489104,13.7869035 C5.44382419,14.2290112 5.08689303,14.693134 4.82516729,15.1799939 C4.56308497,15.665771 4.43222209,16.1732024 4.43222209,16.7040926 C4.43222209,17.264216 4.53384585,17.7911362 4.73744994,18.2834096 C4.94105403,18.7771266 5.21026784,19.2120162 5.54544795,19.5877176 C5.88027148,19.9634189 6.26608518,20.2575559 6.70253248,20.4715721 C7.13897977,20.6855883 7.59004662,20.7920551 8.0560896,20.7920551 C8.55065855,20.7920551 9.02347645,20.7260096 9.47489988,20.5931968 C9.92596673,20.4611059 10.362414,20.2802928 10.7849549,20.0518404 C11.2071392,19.8241098 11.6289669,19.5620934 12.0507947,19.2679564 C12.472979,18.9723758 12.9022948,18.6573064 13.3390987,18.3176955 L13.3390987,9.87686676 Z M15.4129364,23.0459021 C14.8306501,22.7517652 14.3400035,22.3360035 13.9395703,21.7971734 C13.539137,21.259787 13.3390987,20.645167 13.3390987,19.9529527 C12.8156472,20.3503082 12.3021798,20.7624609 11.8001227,21.1901324 C11.2977092,21.6174431 10.75215,22.0039715 10.1627323,22.3500787 C9.57331446,22.6961859 8.91864352,22.9798566 8.19764971,23.2007301 C7.47772562,23.4216035 6.64405424,23.5316793 5.69806187,23.5316793 C4.82516729,23.5316793 4.03535458,23.3884003 3.33005005,23.1014814 C2.6236758,22.8142016 2.02641337,22.4200941 1.53933248,21.9187981 C1.05153845,21.4182239 0.673212817,20.8212883 0.403999005,20.128713 C0.134428619,19.4364987 0,18.692675 0,17.897242 C0,16.9246051 0.189341105,16.0497731 0.568023314,15.2676936 C0.946348949,14.4877795 1.46623469,13.7919561 2.12875027,13.1798625 C2.79090928,12.5688516 3.55861436,12.0228035 4.43222209,11.5449662 C5.30511668,11.0664072 6.23613292,10.6383747 7.22669712,10.2626734 C8.21583502,9.88733298 9.23492518,9.55313564 10.2825413,9.25755505 C11.330514,8.96341809 12.3492476,8.69021356 13.3390987,8.44010691 L13.3390987,7.02608404 C13.3390987,5.99570239 13.2660009,5.12628404 13.120875,4.41818989 C12.9753926,3.71190027 12.7496809,3.14167154 12.444453,2.70678191 C12.138512,2.27225319 11.7491326,1.96187553 11.2756015,1.77817527 C10.8031402,1.59375319 10.2393958,1.50172261 9.5840117,1.50172261 C8.9582233,1.50172261 8.38342507,1.6280391 7.85926043,1.87742394 C7.33580894,2.1289742 6.8733317,2.46317154 6.47325502,2.88218138 C6.07282176,3.30299574 5.74548629,3.79707367 5.49089204,4.36297154 C5.23558463,4.93139574 5.06478541,5.53157952 4.97778121,6.16460559 L0.917109833,6.16460559 C1.03335315,5.19269043 1.36461094,4.32291117 1.91052663,3.55707234 C2.45608574,2.79159441 3.14391812,2.14629761 3.9733106,1.62334734 C4.80305966,1.10147979 5.74548629,0.699071543 6.80059049,0.419370745 C7.85569468,0.139309043 8.95144838,0 10.0864253,0 C11.5412496,0 12.7643004,0.142918085 13.7541515,0.429836968 C14.7436459,0.716755851 15.5366678,1.11808138 16.1332171,1.63525718 C16.730123,2.14990665 17.155873,2.77968457 17.4108238,3.52386915 C17.6650615,4.26877553 17.7927152,5.08947181 17.7927152,5.9874016 L17.7927152,19.9529527 C17.7927152,20.645167 17.9927536,21.259787 18.3931868,21.7971734 C18.7936201,22.3360035 19.2842667,22.7517652 19.8669096,23.0459021 L15.4129364,23.0459021 Z" id="Fill-3" fill="#382C73" mask="url(#mask--f4ah5g55t-3)"/>
                            </g>
                            <path d="M28.1623677,10.8055456 L29.4289206,10.8055456 L29.4289206,15.3789243 C30.7824778,13.8476076 32.1863119,12.7020974 33.6418494,11.9427549 C35.0977434,11.1852169 36.5750319,10.8055456 38.0740714,10.8055456 C38.860675,10.8055456 39.5916529,10.981306 40.2680749,11.3346312 C40.9455666,11.6894001 41.537837,12.1748163 42.0473821,12.7937671 C42.556214,13.4130788 42.9562907,14.1381355 43.2483253,14.9703807 C43.5392901,15.8033477 43.6847725,16.6904504 43.6847725,17.6327714 L43.6847725,33.8514477 L39.2532636,33.8514477 L39.2532636,18.4058283 C39.2532636,17.6551474 39.1655463,16.9961363 38.9911813,16.4291557 C38.8164597,15.8618142 38.5686404,15.3868642 38.2480798,15.003223 C37.9282324,14.6203036 37.5534726,14.3297756 37.1245133,14.1301956 C36.6951975,13.9313373 36.2184573,13.8324496 35.6946492,13.8324496 C35.2278931,13.8324496 34.7343939,13.913653 34.2098727,14.0760599 C33.6860646,14.2377451 33.1512027,14.4622275 32.6056436,14.7491464 C32.0593713,15.0360653 31.5170214,15.3789243 30.9785938,15.7766408 C30.4405227,16.1739964 29.9234896,16.6171868 29.4289206,17.102603 L29.4289206,33.8514477 L24.9753041,33.8514477 L24.9753041,12.0651014 L28.1623677,10.8055456 Z" id="Fill-6" fill="#382C73"/>
                            <g id="Group-10" transform="translate(49.186148, 3.534949)">
                                <mask id="mask--f4ah5g55t-5" fill="white">
                                    <use xlink:href="#path--f4ah5g55t-4"/>
                                </mask>
                                <g id="Clip-9"/>
                                <path d="M7.05090585,0 L8.31745877,0 L8.31745877,7.69014787 L13.2955966,7.69014787 L13.2955966,9.61232394 L8.31745877,9.61232394 L8.31745877,25.5433596 C8.31745877,25.8826096 8.37914618,26.1991226 8.50287756,26.4936205 C8.62696551,26.7888402 8.79491214,27.0461649 9.004578,27.2673992 C9.21602673,27.4882726 9.46705524,27.6618676 9.75837667,27.7860186 C10.0493415,27.912696 10.3699021,27.9740497 10.7189886,27.9740497 C11.2139141,27.9740497 11.6642678,27.8498987 12.0729023,27.5994311 C12.4797539,27.3489636 12.8370416,27.0389468 13.1419129,26.6704636 L14.2558519,27.4218662 C13.6439699,28.4677668 12.850948,29.2935157 11.8757166,29.8973085 C10.9004851,30.5011013 9.69312352,30.8024564 8.25184905,30.8024564 C7.50981734,30.8024564 6.86156474,30.6732527 6.30958728,30.415567 C5.75547038,30.1582423 5.30155093,29.797338 4.94461977,29.3335761 C4.58768861,28.8690923 4.32311027,28.316187 4.147319,27.6763037 C3.97295403,27.0356987 3.88559325,26.3243564 3.88559325,25.5433596 L3.88559325,9.61232394 L0,9.61232394 L0,8.77249973 L3.88559325,7.69014787 L3.88559325,1.25955585 L7.05090585,0 Z" id="Fill-8" fill="#382C73" mask="url(#mask--f4ah5g55t-5)"/>
                            </g>
                            <path d="M69.6420117,12.0859617 L72.7638222,10.8054734 L74.051413,10.8054734 L74.051413,33.8517364 L69.6420117,33.8517364 L69.6420117,12.0859617 Z M69.2925686,2.56278112 C69.2925686,2.20945585 69.3574652,1.87850665 69.4886846,1.5692117 C69.6195475,1.25955585 69.8021137,0.986712234 70.0349569,0.75140266 C70.2674435,0.515371277 70.5370139,0.330949202 70.8418852,0.19849734 C71.1485393,0.0660454787 71.4758748,0 71.8246047,0 C72.1744044,0 72.5020964,0.0660454787 72.8073243,0.19849734 C73.1121956,0.330949202 73.381766,0.515371277 73.6156789,0.75140266 C73.8470958,0.986712234 74.0300185,1.25955585 74.1608814,1.5692117 C74.2917443,1.87850665 74.3569974,2.20945585 74.3569974,2.56278112 C74.3569974,2.9171891 74.2917443,3.2481383 74.1608814,3.55743324 C74.0300185,3.86745 73.8470958,4.13993271 73.6156789,4.37524229 C73.381766,4.61091277 73.1121956,4.79461303 72.8073243,4.92814761 C72.5020964,5.05987766 72.1744044,5.12628404 71.8246047,5.12628404 C71.4758748,5.12628404 71.1485393,5.05987766 70.8418852,4.92814761 C70.5370139,4.79461303 70.2674435,4.61091277 70.0349569,4.37524229 C69.8021137,4.13993271 69.6195475,3.86745 69.4886846,3.55743324 C69.3574652,3.2481383 69.2925686,2.9171891 69.2925686,2.56278112 L69.2925686,2.56278112 Z" id="Fill-11" fill="#382C73"/>
                            <g id="Group-15" transform="translate(80.709944, 10.805690)">
                                <mask id="mask--f4ah5g55t-7" fill="white">
                                    <use xlink:href="#path--f4ah5g55t-6"/>
                                </mask>
                                <g id="Clip-14"/>
                                <path d="M8.25291877,21.9635503 C8.84911148,21.9635503 9.40215866,21.8715197 9.91206032,21.6870976 C10.4212488,21.5026755 10.8616184,21.2561779 11.2328126,20.9465221 C11.6040067,20.6368662 11.8906927,20.2802928 12.0946534,19.8746364 C12.2989706,19.469341 12.4005943,19.0535793 12.4005943,18.6262686 C12.4005943,17.9340543 12.229082,17.3299005 11.8874835,16.8148902 C11.5455285,16.2987971 11.0941051,15.8390051 10.534283,15.4337096 C9.97339115,15.028775 9.33654894,14.6563218 8.62375634,14.3174327 C7.90989402,13.9796263 7.18319502,13.6299101 6.44045016,13.2679231 C5.69806187,12.906658 4.97100629,12.5240995 4.25714397,12.118804 C3.5439948,11.7135085 2.90750917,11.2385585 2.34733049,10.6935931 C1.78679525,10.1497104 1.3357284,9.51993245 0.993773369,8.80498112 C0.651818342,8.0907516 0.480662541,7.25453644 0.480662541,6.29705745 C0.480662541,5.39912766 0.669290496,4.5625516 1.04832928,3.78913378 C1.42665492,3.01571596 1.9543853,2.3494867 2.63116386,1.7897242 C3.30758585,1.2299617 4.11166154,0.791102128 5.04339093,0.474589096 C5.97476375,0.158076064 6.99349734,0 8.09994828,0 C8.84233656,0 9.53302153,0.0501656915 10.1737861,0.154106117 C10.8138374,0.257324734 11.4431916,0.45546117 12.0625616,0.75140266 C12.680862,1.04517872 13.2959531,1.46815851 13.9067654,2.02106383 C14.5179342,2.57396915 15.1658303,3.29144681 15.8504535,4.17602314 L14.213063,5.65609149 C13.3686943,4.25650479 12.4259111,3.2145742 11.3850699,2.52921702 C10.3445853,1.84385984 9.23528175,1.50172261 8.05573303,1.50172261 C7.41532507,1.50172261 6.83339535,1.57931702 6.30994386,1.73414495 C5.78577922,1.88861197 5.33827811,2.1029891 4.96708397,2.37475 C4.59588983,2.64759362 4.30492497,2.96735479 4.09383281,3.33619894 C3.88274066,3.70504309 3.77719458,4.09445878 3.77719458,4.50697234 C3.77719458,5.18547234 3.96296994,5.77482899 4.33416408,6.27432048 C4.70535823,6.77525559 5.19636143,7.22891223 5.80753027,7.63420771 C6.41905568,8.03950319 7.11401955,8.41015186 7.89206529,8.74940186 C8.67118076,9.08865186 9.46420264,9.43475904 10.2725572,9.78808431 C11.0798421,10.1414096 11.872864,10.5250508 12.6516229,10.9372035 C13.4303817,11.349717 14.1253456,11.824667 14.7365145,12.3620535 C15.3480399,12.8998008 15.8386865,13.5219997 16.2098806,14.2286503 C16.5810748,14.9367444 16.7668501,15.7606888 16.7668501,16.7040926 C16.7668501,17.6622934 16.5924852,18.5566141 16.2430421,19.3892202 C15.893599,20.2214654 15.3658686,20.942913 14.6598509,21.5546457 C13.9541898,22.1660176 13.0702414,22.6478247 12.0076492,23.0018718 C10.9450569,23.3551971 9.69419325,23.5316793 8.25291877,23.5316793 C7.59717811,23.5316793 6.92432187,23.4804309 6.2336369,23.3775731 C5.54152563,23.2736327 4.84620519,23.0715263 4.14838872,22.7690886 C3.44950254,22.4677335 2.75097292,22.0440319 2.05244331,21.4994274 C1.35320055,20.9548229 0.669290496,20.2398715 0,19.3563779 L1.81246862,17.6991056 C2.35053967,18.4645835 2.86757281,19.1167375 3.36285491,19.6541239 C3.85706729,20.1918713 4.3634032,20.6336181 4.87936662,20.9797253 C5.39568662,21.3258324 5.9276959,21.5763 6.47325502,21.730767 C7.01881413,21.8855949 7.61215424,21.9635503 8.25291877,21.9635503" id="Fill-13" fill="#382C73" mask="url(#mask--f4ah5g55t-7)"/>
                            </g>
                        </g>
                    </g>
                </g>
            </g>
        </g>
    </g>
</svg>