<svg width="886" height="303" viewBox="0 0 886 303" fill="none" xmlns="http://www.w3.org/2000/svg">
  <circle cx="148" cy="148" r="148" fill="white" />
  <path
    d="M295.487 113.576C294.358 95.0821 282.275 79.0871 275.574 62.3763C271.68 52.6661 266.918 41.2942 270.339 30.9651C273.047 22.7847 281.622 20.4034 289.367 19.3025C272.173 14.5152 250.817 23.3675 242.183 38.595C237.361 47.0945 234.596 59.6887 238.989 68.9479C244.42 80.3973 252.409 91.2898 251.662 104.964C251.161 114.092 244.782 128.087 236.379 132.149C240.29 130.257 241.66 125.171 242.291 121.253C242.698 118.715 242.957 116.141 242.939 113.567C242.817 98.8887 230.709 85.7621 216.678 82.5719C208.962 80.8172 199.617 81.8354 192.559 85.4443C185.455 89.0738 179.91 97.2077 180.189 105.077C180.563 115.556 189.92 125.635 200.557 119.653C203.149 118.194 205.615 115.93 206.401 112.961C207.685 108.104 206.486 103.19 201.017 101.881C198.607 101.304 195.949 101.642 194.259 103.587C193.617 104.326 192.643 105.716 192.936 106.756C194.005 110.501 198.177 103.787 199.95 108.638C202.069 114.428 195.036 118.779 190.636 114.611C187.864 111.988 187.381 107.485 188.29 103.95C189.142 100.632 192.019 97.9054 194.917 96.2786C203.274 91.5883 214.404 98.2284 218.015 106.179C222.572 116.207 215.724 127.301 208.819 134.189C204.618 138.377 199.986 142.123 196.034 146.56C190.029 153.31 187.178 160.168 185.925 167.492C185.446 170.283 185.218 173.153 185.115 176.099C177.206 172.588 166.963 174.697 158.792 173.715C146.632 172.25 134.26 172.584 122.311 169.311C116.435 167.703 110.471 164.114 105.349 160.931C86.5592 149.242 103.817 124.67 115.915 113.421C119.998 109.627 125.639 105.539 127.877 101.107C129.095 98.6949 131.049 86.1291 128.843 84.4972C125.524 82.0409 116.983 85.9133 114.084 86.9341C103.42 90.6825 92.8156 90.627 81.6156 92.8197C70.1817 95.0563 58.231 98.974 47.907 104.327C51.7859 109.003 60.0347 108.551 61.929 115.407C65.0546 126.717 55.7294 135.074 51.083 144.24C46.1898 153.894 45.5399 165.634 43.6779 176.258C39.5315 199.908 45.4275 221.392 31.1987 242.852C27.011 249.171 22.1385 256.853 16.7245 262.111C13.1169 265.613 9.2755 268.815 6 272.543C7.4407 278.625 17.3331 278.292 21.9498 277.696C30.3511 276.613 32.695 272.792 37.7794 266.62C41.4309 262.191 44.7607 257.482 48.0776 252.752C51.5456 247.811 54.9994 242.849 58.7956 238.165C68.5265 226.163 84.4957 220.577 92.9034 207.346C97.7101 199.783 98.1907 188.631 92.0545 181.595C89.1602 178.276 84.8019 175.727 80.2679 176.405C76.389 176.985 72.3511 180.781 74.12 185.094C74.8307 186.83 77.1203 187.111 78.4292 185.731C79.7213 184.368 78.6101 183.844 78.1269 182.546C77.5609 181.027 78.1295 179.343 80.1787 179.679C81.6453 179.918 82.5097 181.62 82.8263 182.849C83.1286 184.018 83.2048 184.798 82.6945 185.923C81.7228 188.064 79.074 190.246 76.6797 190.406C68.2978 190.968 66.0159 181.002 70.9233 175.565C78.8957 166.724 93.4991 171.982 99.0358 180.564C104.164 188.509 104.526 199.824 99.2826 207.795C91.4537 219.696 79.1373 226.84 69.1209 236.568C60.8255 244.628 59.9701 254.247 60.8901 265.474C61.3256 270.753 68.3521 283.084 74.1252 275.374C76.6409 272.013 74.9444 263.099 74.4728 259.15C73.3809 250.001 78.455 246.203 84.4737 240.315C88.8875 236.003 93.0675 231.9 98.5151 228.845C109.764 222.538 143.174 211.325 152.427 226.302C150.07 222.485 149.533 216.375 149.699 212.019C149.941 205.802 152.523 199.88 157.4 195.96C160.442 193.519 164.212 191.542 168.152 191.222C175.167 190.649 181.87 194.299 184.155 201.162C185.17 204.21 184.829 207.49 183.391 210.347C181.021 215.047 174.823 217.498 169.951 215.19C167.516 214.036 165.246 211.347 165.436 208.504C165.594 206.148 166.773 202.804 169.752 204.201C171.296 204.926 170.754 205.769 169.743 206.645C168.659 207.582 167.926 207.665 168.242 209.272C168.723 211.701 170.927 213.618 173.45 213.279C175.883 212.951 177.736 211.336 178.433 208.995C179.724 204.679 177.745 200.521 173.902 198.536C169.569 196.298 164.298 197.646 160.65 200.582C156.473 203.945 154.426 209.465 154.144 214.756C153.956 218.247 154.59 221.98 156.771 224.807C160.616 229.79 167.299 231.924 173.109 233.563C179.656 235.408 186.435 236.541 192.825 238.911C198.376 240.964 201.634 244.403 206.397 248.117C214.527 254.448 223.211 267.725 226.696 277.775C236.132 279.909 236.477 265.045 234.485 259.371C230.971 249.36 221.002 240.243 216.137 230.458C210.05 218.223 210.585 204.855 202.947 193.31C201.669 191.375 200.194 189.455 198.599 187.595C227.266 171.836 265.931 173.679 286.314 143.911C292.325 135.135 296.143 124.303 295.487 113.576Z"
    fill="#1C81E2" />
  <path
    d="M333.585 157V69.7273H352.037V108.207H353.188L384.594 69.7273H406.71L374.324 108.804L407.094 157H385.02L361.114 121.119L352.037 132.199V157H333.585ZM435.971 69.7273V157H417.52V69.7273H435.971ZM449.029 84.9403V69.7273H520.705V84.9403H493.986V157H475.747V84.9403H449.029ZM581.052 94.8267C580.712 91.3892 579.248 88.7187 576.663 86.8153C574.078 84.9119 570.569 83.9602 566.138 83.9602C563.126 83.9602 560.584 84.3864 558.51 85.2386C556.436 86.0625 554.845 87.2131 553.737 88.6903C552.658 90.1676 552.118 91.8438 552.118 93.7188C552.061 95.2812 552.388 96.6449 553.098 97.8097C553.837 98.9744 554.845 99.983 556.123 100.835C557.402 101.659 558.879 102.384 560.555 103.009C562.231 103.605 564.021 104.116 565.925 104.543L573.765 106.418C577.572 107.27 581.067 108.406 584.248 109.827C587.43 111.247 590.186 112.994 592.515 115.068C594.845 117.142 596.649 119.585 597.927 122.398C599.234 125.21 599.902 128.435 599.93 132.071C599.902 137.412 598.538 142.043 595.839 145.963C593.169 149.855 589.305 152.881 584.248 155.04C579.22 157.17 573.155 158.236 566.052 158.236C559.007 158.236 552.871 157.156 547.643 154.997C542.444 152.838 538.382 149.642 535.456 145.409C532.558 141.148 531.038 135.878 530.896 129.599H548.751C548.95 132.526 549.788 134.969 551.265 136.929C552.771 138.861 554.774 140.324 557.274 141.318C559.802 142.284 562.658 142.767 565.839 142.767C568.964 142.767 571.677 142.312 573.979 141.403C576.308 140.494 578.112 139.23 579.39 137.611C580.669 135.991 581.308 134.131 581.308 132.028C581.308 130.068 580.726 128.42 579.561 127.085C578.425 125.75 576.748 124.614 574.533 123.676C572.345 122.739 569.66 121.886 566.479 121.119L556.976 118.733C549.618 116.943 543.808 114.145 539.547 110.338C535.285 106.531 533.169 101.403 533.197 94.9545C533.169 89.6705 534.575 85.054 537.416 81.1051C540.285 77.1562 544.22 74.0739 549.22 71.858C554.22 69.642 559.902 68.5341 566.265 68.5341C572.743 68.5341 578.396 69.642 583.226 71.858C588.084 74.0739 591.862 77.1562 594.561 81.1051C597.26 85.054 598.652 89.6278 598.737 94.8267H581.052ZM667.448 69.7273H685.899V126.403C685.899 132.767 684.38 138.335 681.34 143.108C678.328 147.881 674.11 151.602 668.684 154.273C663.257 156.915 656.936 158.236 649.72 158.236C642.476 158.236 636.141 156.915 630.715 154.273C625.289 151.602 621.07 147.881 618.059 143.108C615.047 138.335 613.541 132.767 613.541 126.403V69.7273H631.993V124.827C631.993 128.151 632.718 131.105 634.166 133.69C635.644 136.276 637.718 138.307 640.388 139.784C643.059 141.261 646.169 142 649.72 142C653.3 142 656.411 141.261 659.053 139.784C661.723 138.307 663.783 136.276 665.232 133.69C666.709 131.105 667.448 128.151 667.448 124.827V69.7273ZM775.278 69.7273V157H759.34L721.371 102.071H720.732V157H702.281V69.7273H718.474L756.144 124.614H756.911V69.7273H775.278ZM791.723 157V69.7273H850.53V84.9403H810.174V105.736H847.504V120.949H810.174V141.787H850.7V157H791.723ZM392.477 205.273V278H383.955L344.324 220.898H343.614V278H334.807V205.273H343.33L383.102 262.517H383.812V205.273H392.477ZM412.1 278V205.273H455.708V213.085H420.907V237.659H452.441V245.472H420.907V278H412.1ZM468.814 213.085V205.273H523.359V213.085H500.49V278H491.683V213.085H468.814Z"
    fill="black" />
</svg>