<svg xmlns="http://www.w3.org/2000/svg" xmlns:xlink="http://www.w3.org/1999/xlink" width="504px" height="504px" viewBox="0 0 504 504" version="1.1">
    <defs>
        <linearGradient x1="50%" y1="0%" x2="50%" y2="100%" id="linearGradient-1">
            <stop stop-color="#A313B2" offset="0%"/>
            <stop stop-color="#5C24D3" offset="100%"/>
        </linearGradient>
    </defs>
    <g id="Page-1" stroke="none" stroke-width="1" fill="none" fill-rule="evenodd">
        <g id="Group-2-Copy-2" transform="translate(-38.000000, -38.000000)">
            <rect id="Rectangle" fill="url(#linearGradient-1)" transform="translate(289.913780, 289.913780) rotate(-315.000000) translate(-289.913780, -289.913780) " x="84.9137803" y="84.9137803" width="410" height="410" rx="100"/>
            <g id="Group" transform="translate(141.040782, 66.130214)" fill="#FFFFFF" fill-opacity="0.378441871">
                <path d="M214.696009,0 L278.490659,63.7458188 C283.178745,68.4303158 283.181654,76.028295 278.497157,80.7163804 C278.463316,80.7502467 278.429274,80.7839102 278.39503,80.8173691 L131.511,224.336 L274.557297,365.944964 C280.837145,372.161734 280.88828,382.292245 274.67151,388.572093 L274.536344,388.70701 L274.536344,388.70701 L213.141877,449.26141 L9.48066632,247.531987 C2.1921611,240.312616 -0.89810783,230.456984 0.224332801,221.002344 C0.711427296,213.529084 3.80979446,206.193662 9.51965447,200.479429 C9.60989558,200.389118 9.70067634,200.299349 9.79199188,200.210125 L214.696009,0 Z" id="Combined-Shape"/>
            </g>
            <g id="Group" transform="translate(177.608718, 86.951965)" fill="#FFFFFF">
                <path d="M199.618625,0 L265.765362,66.1467369 L100.859,202.575 L261.553781,343.661117 L195.235848,409.981128 L4.55354137,214.743395 C-0.825086705,209.236271 -1.44093953,200.813985 2.7173489,194.639264 C3.34752597,193.383964 4.15434267,192.191023 5.14012332,191.096744 C5.35786781,190.855034 5.58293363,190.620021 5.81500689,190.392033 L19.437,177.01 L32.8682372,163.13674 C33.9106038,162.060027 35.0691472,161.160253 36.3056485,160.43897 L199.618625,0 Z" id="Combined-Shape"/>
            </g>
        </g>
    </g>
</svg>