<svg width="180" height="180" viewBox="0 0 180 180" fill="none" xmlns="http://www.w3.org/2000/svg">
<circle cx="90" cy="90" r="90" fill="#1A237E"/>
<path d="M101.291 97.5564C105.573 108.64 107.601 130.814 108.134 137.588C108.225 138.76 109.17 139.675 110.352 139.758C145.201 142.154 153.217 126.104 154.886 120.955C155.176 120.048 154.902 119.065 154.17 118.445C140.316 106.742 122.682 96.876 116.951 93.799C116.021 93.3 114.863 93.4512 114.139 94.2072C112.798 95.6059 109.628 97.5262 102.358 97.3145H101.161L101.291 97.5564Z" fill="white"/>
<path d="M110.405 76.433C109.14 74.8227 104.621 70.0975 93.1748 66.6727C92.8699 66.582 92.6185 66.3552 92.5041 66.0528L83.1537 41.3837C82.8641 40.6277 83.5347 39.8565 84.3272 40.0228C91.1553 41.4593 115.907 47.9082 137.374 69.4398C137.953 70.0219 137.633 71.0199 136.818 71.1635C132.307 71.9422 120.738 74.0667 111.51 76.7884C111.098 76.9018 110.672 76.7657 110.405 76.433Z" fill="white"/>
<path d="M75.1827 71.7004C74.7789 77.5974 76.6688 82.0504 78.0481 84.4621C78.6654 85.5432 78.1472 86.904 76.966 87.3123C69.8026 89.7694 48.7621 97.1179 40.0822 101.654C39.183 102.123 38.0857 101.866 37.5065 101.042C33.0713 94.7591 16.8928 69.523 30.0612 52.6334C30.5946 51.953 31.5014 51.6808 32.3169 51.9681C37.8418 53.9111 59.4691 61.7662 74.1006 70.468C74.2454 70.5512 74.375 70.657 74.4969 70.7704L75.0151 71.2845L75.1827 71.7004Z" fill="white"/>
<path d="M107.118 88.6116C109.542 85.1271 106.5 78.8744 100.325 74.6457C94.1486 70.4171 87.1769 69.8139 84.7529 73.2983C82.3288 76.7828 85.3704 83.0355 91.5463 87.2641C97.7222 91.4928 104.694 92.096 107.118 88.6116Z" fill="white"/>
<rect y="137" width="109" height="43" rx="21.5" fill="#283593"/>
<path d="M21.0625 165H19.5547L13.8281 156.234V165H12.3203V153.625H13.8281L19.5703 162.43V153.625H21.0625V165Z" fill="white"/>
<path d="M23.1172 160.695C23.1172 159.867 23.2786 159.122 23.6016 158.461C23.9297 157.799 24.3828 157.289 24.9609 156.93C25.5443 156.57 26.2083 156.391 26.9531 156.391C28.1042 156.391 29.0339 156.789 29.7422 157.586C30.4557 158.383 30.8125 159.443 30.8125 160.766V160.867C30.8125 161.69 30.6536 162.43 30.3359 163.086C30.0234 163.737 29.5729 164.245 28.9844 164.609C28.401 164.974 27.7292 165.156 26.9688 165.156C25.8229 165.156 24.8932 164.758 24.1797 163.961C23.4714 163.164 23.1172 162.109 23.1172 160.797V160.695ZM24.5703 160.867C24.5703 161.805 24.7865 162.557 25.2188 163.125C25.6562 163.693 26.2396 163.977 26.9688 163.977C27.7031 163.977 28.2865 163.69 28.7188 163.117C29.151 162.539 29.3672 161.732 29.3672 160.695C29.3672 159.768 29.1458 159.018 28.7031 158.445C28.2656 157.867 27.6823 157.578 26.9531 157.578C26.2396 157.578 25.6641 157.862 25.2266 158.43C24.7891 158.997 24.5703 159.81 24.5703 160.867Z" fill="white"/>
<path d="M36.7109 157.844C36.4922 157.807 36.2552 157.789 36 157.789C35.0521 157.789 34.4089 158.193 34.0703 159V165H32.625V156.547H34.0312L34.0547 157.523C34.5286 156.768 35.2005 156.391 36.0703 156.391C36.3516 156.391 36.5651 156.427 36.7109 156.5V157.844Z" fill="white"/>
<path d="M40.3984 154.5V156.547H41.9766V157.664H40.3984V162.906C40.3984 163.245 40.4688 163.5 40.6094 163.672C40.75 163.839 40.9896 163.922 41.3281 163.922C41.4948 163.922 41.724 163.891 42.0156 163.828V165C41.6354 165.104 41.2656 165.156 40.9062 165.156C40.2604 165.156 39.7734 164.961 39.4453 164.57C39.1172 164.18 38.9531 163.625 38.9531 162.906V157.664H37.4141V156.547H38.9531V154.5H40.3984Z" fill="white"/>
<path d="M45.1172 157.57C45.7578 156.784 46.5911 156.391 47.6172 156.391C49.4036 156.391 50.3047 157.398 50.3203 159.414V165H48.875V159.406C48.8698 158.797 48.7292 158.346 48.4531 158.055C48.1823 157.763 47.7578 157.617 47.1797 157.617C46.7109 157.617 46.2995 157.742 45.9453 157.992C45.5911 158.242 45.3151 158.57 45.1172 158.977V165H43.6719V153H45.1172V157.57Z" fill="white"/>
<path d="M52.7109 165V153.625H56.4297C57.6641 153.625 58.5911 153.88 59.2109 154.391C59.8359 154.901 60.1484 155.656 60.1484 156.656C60.1484 157.188 59.9974 157.659 59.6953 158.07C59.3932 158.477 58.9818 158.792 58.4609 159.016C59.0755 159.188 59.5599 159.516 59.9141 160C60.2734 160.479 60.4531 161.052 60.4531 161.719C60.4531 162.74 60.1224 163.542 59.4609 164.125C58.7995 164.708 57.8646 165 56.6562 165H52.7109ZM54.2109 159.68V163.773H56.6875C57.3854 163.773 57.9349 163.594 58.3359 163.234C58.7422 162.87 58.9453 162.37 58.9453 161.734C58.9453 160.365 58.2005 159.68 56.7109 159.68H54.2109ZM54.2109 158.477H56.4766C57.1328 158.477 57.6562 158.312 58.0469 157.984C58.4427 157.656 58.6406 157.211 58.6406 156.648C58.6406 156.023 58.4583 155.57 58.0938 155.289C57.7292 155.003 57.1745 154.859 56.4297 154.859H54.2109V158.477Z" fill="white"/>
<path d="M66.5391 157.844C66.3203 157.807 66.0833 157.789 65.8281 157.789C64.8802 157.789 64.237 158.193 63.8984 159V165H62.4531V156.547H63.8594L63.8828 157.523C64.3568 156.768 65.0286 156.391 65.8984 156.391C66.1797 156.391 66.3932 156.427 66.5391 156.5V157.844Z" fill="white"/>
<path d="M69.4453 165H68V156.547H69.4453V165ZM67.8828 154.305C67.8828 154.07 67.9531 153.872 68.0938 153.711C68.2396 153.549 68.4531 153.469 68.7344 153.469C69.0156 153.469 69.2292 153.549 69.375 153.711C69.5208 153.872 69.5938 154.07 69.5938 154.305C69.5938 154.539 69.5208 154.734 69.375 154.891C69.2292 155.047 69.0156 155.125 68.7344 155.125C68.4531 155.125 68.2396 155.047 68.0938 154.891C67.9531 154.734 67.8828 154.539 67.8828 154.305Z" fill="white"/>
<path d="M71.4141 160.703C71.4141 159.406 71.7214 158.365 72.3359 157.578C72.9505 156.786 73.7552 156.391 74.75 156.391C75.7396 156.391 76.5234 156.729 77.1016 157.406V153H78.5469V165H77.2188L77.1484 164.094C76.5703 164.802 75.7656 165.156 74.7344 165.156C73.7552 165.156 72.9557 164.755 72.3359 163.953C71.7214 163.151 71.4141 162.104 71.4141 160.812V160.703ZM72.8594 160.867C72.8594 161.826 73.0573 162.576 73.4531 163.117C73.849 163.659 74.3958 163.93 75.0938 163.93C76.0104 163.93 76.6797 163.518 77.1016 162.695V158.812C76.6693 158.016 76.0052 157.617 75.1094 157.617C74.401 157.617 73.849 157.891 73.4531 158.438C73.0573 158.984 72.8594 159.794 72.8594 160.867Z" fill="white"/>
<path d="M80.4531 160.703C80.4531 159.385 80.7578 158.339 81.3672 157.562C81.9766 156.781 82.7839 156.391 83.7891 156.391C84.8203 156.391 85.625 156.755 86.2031 157.484L86.2734 156.547H87.5938V164.797C87.5938 165.891 87.2682 166.753 86.6172 167.383C85.9714 168.013 85.1016 168.328 84.0078 168.328C83.3984 168.328 82.8021 168.198 82.2188 167.938C81.6354 167.677 81.1901 167.32 80.8828 166.867L81.6328 166C82.2526 166.766 83.0104 167.148 83.9062 167.148C84.6094 167.148 85.1562 166.951 85.5469 166.555C85.9427 166.159 86.1406 165.602 86.1406 164.883V164.156C85.5625 164.823 84.7734 165.156 83.7734 165.156C82.7839 165.156 81.9818 164.758 81.3672 163.961C80.7578 163.164 80.4531 162.078 80.4531 160.703ZM81.9062 160.867C81.9062 161.82 82.1016 162.57 82.4922 163.117C82.8828 163.659 83.4297 163.93 84.1328 163.93C85.0443 163.93 85.7135 163.516 86.1406 162.688V158.828C85.6979 158.021 85.0339 157.617 84.1484 157.617C83.4453 157.617 82.8958 157.891 82.5 158.438C82.1042 158.984 81.9062 159.794 81.9062 160.867Z" fill="white"/>
<path d="M93.2891 165.156C92.1432 165.156 91.2109 164.781 90.4922 164.031C89.7734 163.276 89.4141 162.268 89.4141 161.008V160.742C89.4141 159.904 89.5729 159.156 89.8906 158.5C90.2135 157.839 90.6615 157.323 91.2344 156.953C91.8125 156.578 92.4375 156.391 93.1094 156.391C94.2083 156.391 95.0625 156.753 95.6719 157.477C96.2812 158.201 96.5859 159.237 96.5859 160.586V161.188H90.8594C90.8802 162.021 91.1224 162.695 91.5859 163.211C92.0547 163.721 92.6484 163.977 93.3672 163.977C93.8776 163.977 94.3099 163.872 94.6641 163.664C95.0182 163.456 95.3281 163.18 95.5938 162.836L96.4766 163.523C95.7682 164.612 94.7057 165.156 93.2891 165.156ZM93.1094 157.578C92.526 157.578 92.0365 157.792 91.6406 158.219C91.2448 158.641 91 159.234 90.9062 160H95.1406V159.891C95.099 159.156 94.901 158.589 94.5469 158.188C94.1927 157.781 93.7135 157.578 93.1094 157.578Z" fill="white"/>
</svg>
