<svg xmlns="http://www.w3.org/2000/svg" width="174" height="174" viewBox="0 0 165 174" fill="none">
<path d="M0.255615 80H30.2556V156H0.255615V80Z" fill="#50C878"/>
<path d="M130.256 18H160.256V94H130.256V18Z" fill="#00A86B"/>
<path fill-rule="evenodd" clip-rule="evenodd" d="M80.2556 144C107.87 144 130.256 121.614 130.256 94C130.256 66.3858 107.87 44 80.2556 44C52.6414 44 30.2556 66.3858 30.2556 94C30.2556 121.614 52.6414 144 80.2556 144ZM80.2556 174C124.438 174 160.256 138.183 160.256 94C160.256 49.8172 124.438 14 80.2556 14C36.0728 14 0.255615 49.8172 0.255615 94C0.255615 138.183 36.0728 174 80.2556 174Z" fill="#00A86B"/>
<path fill-rule="evenodd" clip-rule="evenodd" d="M80.2556 130C107.87 130 130.256 107.614 130.256 80C130.256 52.3858 107.87 30 80.2556 30C52.6414 30 30.2556 52.3858 30.2556 80C30.2556 107.614 52.6414 130 80.2556 130ZM80.2556 160C124.438 160 160.256 124.183 160.256 80C160.256 35.8172 124.438 0 80.2556 0C36.0728 0 0.255615 35.8172 0.255615 80C0.255615 124.183 36.0728 160 80.2556 160Z" fill="#50C878"/>

</svg>