<svg width="797" height="473" viewBox="0 0 797 473" fill="none" xmlns="http://www.w3.org/2000/svg">
<g filter="url(#filter0_d_204_488)">
<path d="M46 94C46 67.4903 67.4903 46 94 46H695C721.51 46 743 67.4903 743 94V371C743 397.51 721.51 419 695 419H94C67.4903 419 46 397.51 46 371V94Z" fill="white"/>
</g>
<path d="M384.023 262.892C378.422 262.892 374.377 262.046 371.887 260.353C369.398 258.66 367.842 256.428 367.22 253.658C366.753 250.888 366.52 248.041 366.52 245.117V118.84C366.52 115.916 366.753 113.145 367.22 110.529C367.842 107.913 369.398 105.758 371.887 104.065C374.377 102.372 378.5 101.526 384.256 101.526H432.797C439.176 101.526 445.711 102.68 452.401 104.988C459.091 107.297 465.236 110.837 470.837 115.608C476.438 120.379 480.95 126.304 484.373 133.383C487.795 140.463 489.507 148.851 489.507 158.546C489.507 165.01 488.495 171.243 486.473 177.246C484.606 183.248 481.728 188.788 477.838 193.867C473.949 198.946 469.126 203.332 463.369 207.026C457.613 210.565 451 213.105 443.532 214.644H401.992V245.347C401.992 248.272 401.681 251.119 401.059 253.889C400.436 256.505 398.881 258.66 396.391 260.353C393.902 262.046 389.779 262.892 384.023 262.892ZM482.506 258.275C476.749 262.431 472.159 264.047 468.737 263.123C465.314 262.2 461.735 259.199 458.002 254.12L416.928 195.945L456.835 190.866L486.94 233.574C489.584 237.268 491.218 240.423 491.84 243.039C492.618 245.655 492.229 248.118 490.674 250.426C489.273 252.735 486.551 255.351 482.506 258.275ZM401.992 180.016H434.431C436.609 180.016 438.865 179.631 441.199 178.862C443.532 177.938 445.633 176.63 447.5 174.937C449.367 173.244 450.923 171.013 452.167 168.242C453.412 165.472 454.034 162.163 454.034 158.316C454.034 153.852 453.101 150.005 451.234 146.773C449.522 143.541 447.033 141.079 443.766 139.386C440.499 137.539 436.687 136.615 432.331 136.615H401.992V180.016Z" fill="#474747"/>
<path d="M527.156 262.892C521.555 262.892 517.51 262.123 515.021 260.584C512.531 258.891 510.976 256.659 510.353 253.889C509.887 251.119 509.653 248.272 509.653 245.347V119.071C509.653 112.299 510.976 107.682 513.621 105.219C516.265 102.757 521.011 101.526 527.856 101.526H616.071C619.182 101.526 622.061 101.833 624.705 102.449C627.35 102.911 629.529 104.373 631.24 106.835C632.951 109.298 633.807 113.453 633.807 119.301C633.807 124.842 632.951 128.843 631.24 131.306C629.529 133.768 627.273 135.307 624.472 135.923C621.827 136.385 618.949 136.615 615.837 136.615H545.126V166.395H593.2C596.312 166.395 599.035 166.626 601.368 167.088C603.858 167.55 605.802 168.858 607.203 171.013C608.603 173.167 609.303 176.784 609.303 181.863C609.303 186.634 608.603 190.096 607.203 192.251C605.802 194.406 603.858 195.714 601.368 196.176C598.879 196.637 596.001 196.868 592.734 196.868H545.126V227.803H616.071C619.182 227.803 622.061 228.11 624.705 228.726C627.35 229.342 629.529 230.881 631.24 233.343C632.951 235.652 633.807 239.73 633.807 245.578C633.807 251.119 632.951 255.12 631.24 257.583C629.529 260.045 627.273 261.507 624.472 261.969C621.827 262.584 618.949 262.892 615.837 262.892H527.156Z" fill="#474747"/>
<path d="M667.028 262.892C661.427 262.892 657.382 262.123 654.892 260.584C652.403 258.891 650.847 256.659 650.225 253.889C649.758 251.119 649.525 248.272 649.525 245.347V119.071C649.525 115.992 649.758 113.145 650.225 110.529C650.847 107.913 652.403 105.758 654.892 104.065C657.382 102.372 661.505 101.526 667.261 101.526C673.173 101.526 677.296 102.372 679.63 104.065C682.119 105.758 683.597 107.913 684.064 110.529C684.686 113.145 684.997 116.069 684.997 119.301V245.578C684.997 248.502 684.686 251.35 684.064 254.12C683.442 256.736 681.886 258.891 679.397 260.584C677.063 262.123 672.94 262.892 667.028 262.892Z" fill="#474747"/>
<path d="M377.657 369.275C374.89 369.275 372.909 368.86 371.712 368.032C370.591 367.203 369.881 366.11 369.581 364.754C369.282 363.398 369.133 362.004 369.133 360.572V298.861C369.133 297.43 369.282 296.073 369.581 294.792C369.881 293.436 370.628 292.344 371.825 291.515C373.021 290.686 375.002 290.272 377.769 290.272H400.761C403.901 290.272 407.041 290.837 410.182 291.967C413.397 293.097 416.35 294.868 419.042 297.279C421.809 299.615 424.014 302.516 425.659 305.982C427.379 309.448 428.239 313.517 428.239 318.188C428.239 322.785 427.379 326.816 425.659 330.282C424.014 333.748 421.809 336.649 419.042 338.985C416.35 341.245 413.397 342.978 410.182 344.184C406.967 345.314 403.789 345.879 400.649 345.879H386.293V360.685C386.293 362.117 386.143 363.511 385.844 364.867C385.545 366.148 384.797 367.203 383.601 368.032C382.405 368.86 380.423 369.275 377.657 369.275ZM386.293 328.699H400.761C402.406 328.699 404.013 328.36 405.583 327.682C407.228 326.929 408.574 325.761 409.621 324.178C410.743 322.596 411.303 320.562 411.303 318.075C411.303 315.965 410.855 314.119 409.957 312.537C409.06 310.955 407.789 309.712 406.144 308.807C404.574 307.903 402.742 307.451 400.649 307.451H386.293V328.699Z" fill="#474747"/>
<path d="M472.056 370.405C466.672 370.405 461.588 369.388 456.803 367.353C452.092 365.244 447.942 362.38 444.353 358.764C440.839 355.072 438.035 350.814 435.942 345.992C433.923 341.17 432.913 335.971 432.913 330.395C432.913 324.744 433.885 319.469 435.83 314.572C437.848 309.598 440.577 305.228 444.017 301.461C447.531 297.693 451.606 294.755 456.242 292.645C460.878 290.535 465.85 289.48 471.159 289.48C476.542 289.48 481.589 290.535 486.3 292.645C491.085 294.679 495.235 297.543 498.749 301.235C502.263 304.927 505.03 309.222 507.048 314.119C509.142 319.017 510.189 324.329 510.189 330.056C510.189 335.556 509.179 340.755 507.161 345.653C505.217 350.475 502.487 354.77 498.973 358.538C495.459 362.23 491.384 365.131 486.748 367.24C482.187 369.35 477.29 370.405 472.056 370.405ZM471.495 353.225C474.486 353.225 477.29 352.623 479.907 351.417C482.524 350.212 484.804 348.592 486.748 346.557C488.767 344.447 490.3 341.998 491.347 339.211C492.468 336.347 493.029 333.258 493.029 329.943C493.029 326.778 492.468 323.802 491.347 321.014C490.225 318.151 488.655 315.664 486.636 313.554C484.692 311.369 482.412 309.674 479.795 308.468C477.252 307.263 474.486 306.66 471.495 306.66C468.579 306.66 465.812 307.263 463.196 308.468C460.653 309.674 458.373 311.369 456.354 313.554C454.41 315.664 452.84 318.151 451.643 321.014C450.522 323.802 449.961 326.816 449.961 330.056C449.961 333.22 450.522 336.234 451.643 339.098C452.84 341.885 454.41 344.334 456.354 346.444C458.373 348.554 460.653 350.212 463.196 351.417C465.738 352.623 468.504 353.225 471.495 353.225Z" fill="url(#paint0_linear_204_488)"/>
<path d="M525.062 369.275C522.37 369.275 520.426 368.898 519.23 368.145C518.033 367.316 517.285 366.223 516.986 364.867C516.762 363.511 516.65 362.117 516.65 360.685V298.861C516.65 297.354 516.762 295.96 516.986 294.679C517.285 293.398 518.033 292.344 519.23 291.515C520.426 290.686 522.407 290.272 525.174 290.272C528.015 290.272 529.996 290.686 531.118 291.515C532.314 292.344 533.025 293.398 533.249 294.679C533.548 295.96 533.698 297.392 533.698 298.974V360.798C533.698 362.23 533.548 363.624 533.249 364.98C532.95 366.261 532.202 367.316 531.006 368.145C529.884 368.898 527.903 369.275 525.062 369.275Z" fill="#474747"/>
<path d="M551.129 369.275C548.512 369.275 546.605 368.86 545.409 368.032C544.213 367.203 543.465 366.148 543.166 364.867C542.867 363.511 542.717 362.079 542.717 360.572V298.522C542.717 297.091 542.867 295.772 543.166 294.566C543.465 293.361 544.213 292.381 545.409 291.628C546.68 290.799 548.699 290.385 551.466 290.385C554.157 290.385 556.027 290.724 557.073 291.402C558.12 292.005 559.055 292.871 559.877 294.001L592.627 339.324V298.522C592.627 297.091 592.776 295.772 593.075 294.566C593.449 293.361 594.234 292.381 595.431 291.628C596.627 290.799 598.571 290.385 601.263 290.385C604.029 290.385 605.973 290.799 607.095 291.628C608.291 292.457 609.001 293.549 609.226 294.905C609.525 296.186 609.674 297.543 609.674 298.974V360.685C609.674 362.117 609.525 363.511 609.226 364.867C608.927 366.148 608.179 367.203 606.983 368.032C605.786 368.86 603.805 369.275 601.038 369.275C598.945 369.275 597.3 369.086 596.103 368.71C594.982 368.333 594.01 367.617 593.187 366.562L559.765 320.901V360.685C559.765 362.117 559.616 363.511 559.316 364.867C559.017 366.148 558.27 367.203 557.073 368.032C555.877 368.86 553.896 369.275 551.129 369.275Z" fill="#474747"/>
<path d="M677.822 290.158C679.093 290.158 680.252 290.272 681.299 290.498C682.346 290.724 683.206 291.364 683.878 292.419C684.626 293.398 685 295.132 685 297.618C685 299.954 684.626 301.649 683.878 302.704C683.206 303.759 682.308 304.399 681.187 304.625C680.065 304.852 678.869 304.965 677.598 304.965H659.541V360.911C659.541 362.343 659.391 363.699 659.092 364.98C658.868 366.261 658.157 367.316 656.961 368.145C655.84 368.898 653.896 369.275 651.129 369.275C648.437 369.275 646.493 368.898 645.297 368.145C644.101 367.316 643.39 366.261 643.166 364.98C642.942 363.624 642.829 362.23 642.829 360.798V304.965H624.548C623.352 304.965 622.193 304.852 621.071 304.625C619.95 304.324 619.052 303.684 618.38 302.704C617.707 301.649 617.37 299.916 617.37 297.505C617.37 295.094 617.707 293.398 618.38 292.419C619.052 291.364 619.95 290.724 621.071 290.498C622.193 290.272 623.352 290.158 624.548 290.158H677.822Z" fill="#474747"/>
<path d="M341.095 188.82C341.095 139.796 303.504 99.5944 255.576 95.3916V95H161.495C134.163 95 112 117.163 112 144.495V322.216C112 349.547 134.163 371.71 161.495 371.71H206.081C233.413 371.71 255.576 349.547 255.576 322.216V319.918C255.576 300.079 267.61 282.536 285.701 274.392C318.358 259.721 341.095 226.933 341.095 188.794V188.82Z" fill="url(#paint1_linear_204_488)"/>
<defs>
<filter id="filter0_d_204_488" x="0" y="0" width="797" height="473" filterUnits="userSpaceOnUse" color-interpolation-filters="sRGB">
<feFlood flood-opacity="0" result="BackgroundImageFix"/>
<feColorMatrix in="SourceAlpha" type="matrix" values="0 0 0 0 0 0 0 0 0 0 0 0 0 0 0 0 0 0 127 0" result="hardAlpha"/>
<feOffset dx="4" dy="4"/>
<feGaussianBlur stdDeviation="25"/>
<feComposite in2="hardAlpha" operator="out"/>
<feColorMatrix type="matrix" values="0 0 0 0 0 0 0 0 0 0 0 0 0 0 0 0 0 0 0.1 0"/>
<feBlend mode="normal" in2="BackgroundImageFix" result="effect1_dropShadow_204_488"/>
<feBlend mode="normal" in="SourceGraphic" in2="effect1_dropShadow_204_488" result="shape"/>
</filter>
<linearGradient id="paint0_linear_204_488" x1="445.322" y1="295.827" x2="498.474" y2="362.488" gradientUnits="userSpaceOnUse">
<stop stop-color="#7B8DF8"/>
<stop offset="1" stop-color="#7ECFF8"/>
</linearGradient>
<linearGradient id="paint1_linear_204_488" x1="124.752" y1="78.7865" x2="317.933" y2="311.51" gradientUnits="userSpaceOnUse">
<stop offset="0.223958" stop-color="#7A8CF7"/>
<stop offset="1" stop-color="#7DCEF7"/>
</linearGradient>
</defs>
</svg>
