<svg width="71" height="34" viewBox="0 0 71 34" fill="none" xmlns="http://www.w3.org/2000/svg">
<path d="M33.424 20.6293C32.7358 20.6293 32.2388 20.5253 31.9329 20.3173C31.627 20.1093 31.4359 19.8351 31.3594 19.4947C31.3021 19.1543 31.2734 18.8045 31.2734 18.4452V2.92923C31.2734 2.56994 31.3021 2.22955 31.3594 1.90807C31.4359 1.5866 31.627 1.32185 31.9329 1.11384C32.2388 0.905826 32.7454 0.801819 33.4527 0.801819H39.4171C40.2008 0.801819 41.0037 0.943646 41.8257 1.2273C42.6478 1.51096 43.4029 1.94589 44.0911 2.53211C44.7793 3.11833 45.3336 3.84638 45.7542 4.71626C46.1748 5.58613 46.3851 6.61675 46.3851 7.8081C46.3851 8.60233 46.2608 9.3682 46.0123 10.1057C45.7829 10.8432 45.4292 11.524 44.9513 12.148C44.4734 12.7721 43.8808 13.311 43.1735 13.7648C42.4662 14.1998 41.6537 14.5118 40.7361 14.7009H35.632V18.4735C35.632 18.8328 35.5937 19.1827 35.5173 19.523C35.4408 19.8445 35.2496 20.1093 34.9438 20.3173C34.6379 20.5253 34.1313 20.6293 33.424 20.6293ZM45.5248 20.062C44.8175 20.5726 44.2536 20.7711 43.833 20.6577C43.4124 20.5442 42.9727 20.1755 42.5139 19.5514L37.4672 12.4033L42.3706 11.7793L46.0696 17.0269C46.3946 17.4807 46.5953 17.8684 46.6718 18.1899C46.7674 18.5113 46.7196 18.8139 46.5284 19.0976C46.3564 19.3812 46.0218 19.7027 45.5248 20.062ZM35.632 10.4461H39.6178C39.8854 10.4461 40.1626 10.3988 40.4493 10.3043C40.7361 10.1908 40.9942 10.0301 41.2236 9.82205C41.453 9.61403 41.6441 9.33983 41.7971 8.99945C41.95 8.65906 42.0265 8.25249 42.0265 7.77973C42.0265 7.23133 41.9118 6.75857 41.6824 6.36146C41.4721 5.96434 41.1662 5.66177 40.7648 5.45376C40.3633 5.22684 39.895 5.11337 39.3597 5.11337H35.632V10.4461Z" fill="#474747"/>
<path d="M51.0111 20.6293C50.3229 20.6293 49.8259 20.5347 49.52 20.3456C49.2142 20.1376 49.023 19.8634 48.9465 19.523C48.8892 19.1827 48.8605 18.8328 48.8605 18.4735V2.9576C48.8605 2.12554 49.023 1.55823 49.348 1.25567C49.673 0.953102 50.256 0.801819 51.0971 0.801819H61.9363C62.3186 0.801819 62.6723 0.83964 62.9972 0.915282C63.3222 0.972013 63.5899 1.15166 63.8001 1.45423C64.0104 1.75679 64.1156 2.26737 64.1156 2.98596C64.1156 3.66673 64.0104 4.1584 63.8001 4.46097C63.5899 4.76353 63.3127 4.95264 62.9686 5.02828C62.6436 5.08501 62.2899 5.11337 61.9076 5.11337H53.2191V8.77252H59.1261C59.5085 8.77252 59.843 8.80089 60.1297 8.85762C60.4356 8.91435 60.6746 9.07509 60.8466 9.33983C61.0187 9.60458 61.1047 10.049 61.1047 10.673C61.1047 11.2592 61.0187 11.6847 60.8466 11.9495C60.6746 12.2142 60.4356 12.3749 60.1297 12.4317C59.8239 12.4884 59.4702 12.5168 59.0688 12.5168H53.2191V16.3177H61.9363C62.3186 16.3177 62.6723 16.3556 62.9972 16.4312C63.3222 16.5068 63.5899 16.696 63.8001 16.9985C64.0104 17.2822 64.1156 17.7833 64.1156 18.5019C64.1156 19.1827 64.0104 19.6743 63.8001 19.9769C63.5899 20.2795 63.3127 20.4591 62.9686 20.5158C62.6436 20.5915 62.2899 20.6293 61.9076 20.6293H51.0111Z" fill="#474747"/>
<path d="M68.1975 20.6293C67.5093 20.6293 67.0122 20.5347 66.7064 20.3456C66.4005 20.1376 66.2093 19.8634 66.1329 19.523C66.0755 19.1827 66.0469 18.8328 66.0469 18.4735V2.9576C66.0469 2.57939 66.0755 2.22955 66.1329 1.90807C66.2093 1.5866 66.4005 1.32185 66.7064 1.11384C67.0122 0.905826 67.5188 0.801819 68.2262 0.801819C68.9526 0.801819 69.4592 0.905826 69.7459 1.11384C70.0518 1.32185 70.2334 1.5866 70.2907 1.90807C70.3672 2.22955 70.4054 2.58885 70.4054 2.98596V18.5019C70.4054 18.8612 70.3672 19.211 70.2907 19.5514C70.2143 19.8729 70.0231 20.1376 69.7173 20.3456C69.4305 20.5347 68.9239 20.6293 68.1975 20.6293Z" fill="#474747"/>
<path d="M32.6419 33.7007C32.3019 33.7007 32.0585 33.6498 31.9115 33.548C31.7737 33.4461 31.6864 33.3119 31.6496 33.1452C31.6129 32.9786 31.5945 32.8073 31.5945 32.6314V25.0489C31.5945 24.873 31.6129 24.7063 31.6496 24.5489C31.6864 24.3823 31.7783 24.248 31.9253 24.1462C32.0722 24.0443 32.3157 23.9934 32.6556 23.9934H35.4807C35.8666 23.9934 36.2524 24.0629 36.6383 24.2017C37.0333 24.3406 37.3962 24.5582 37.727 24.8544C38.0669 25.1414 38.3379 25.4979 38.54 25.9238C38.7514 26.3497 38.857 26.8496 38.857 27.4236C38.857 27.9884 38.7514 28.4837 38.54 28.9096C38.3379 29.3354 38.0669 29.6919 37.727 29.9789C37.3962 30.2566 37.0333 30.4696 36.6383 30.6177C36.2432 30.7566 35.8528 30.826 35.4669 30.826H33.703V32.6453C33.703 32.8212 33.6846 32.9925 33.6479 33.1591C33.6111 33.3165 33.5192 33.4461 33.3722 33.548C33.2252 33.6498 32.9818 33.7007 32.6419 33.7007ZM33.703 28.7151H35.4807C35.6828 28.7151 35.8803 28.6735 36.0733 28.5902C36.2754 28.4976 36.4408 28.3541 36.5694 28.1596C36.7072 27.9652 36.7761 27.7153 36.7761 27.4097C36.7761 27.1505 36.721 26.9237 36.6107 26.7292C36.5005 26.5348 36.3443 26.3821 36.1422 26.271C35.9493 26.1599 35.7242 26.1043 35.4669 26.1043H33.703V28.7151Z" fill="#474747"/>
<path d="M44.2409 33.8396C43.5794 33.8396 42.9547 33.7146 42.3667 33.4646C41.7879 33.2054 41.278 32.8536 40.837 32.4092C40.4052 31.9555 40.0607 31.4325 39.8035 30.8399C39.5554 30.2474 39.4314 29.6086 39.4314 28.9235C39.4314 28.2291 39.5508 27.581 39.7897 26.9792C40.0377 26.3682 40.3731 25.8312 40.7957 25.3683C41.2275 24.9054 41.7282 24.5443 42.2978 24.2851C42.8674 24.0258 43.4784 23.8962 44.1306 23.8962C44.7921 23.8962 45.4123 24.0258 45.9911 24.2851C46.579 24.535 47.0889 24.8868 47.5207 25.3405C47.9525 25.7942 48.2925 26.3219 48.5405 26.9237C48.7978 27.5255 48.9264 28.1782 48.9264 28.8818C48.9264 29.5576 48.8023 30.1965 48.5543 30.7983C48.3154 31.3908 47.9801 31.9185 47.5483 32.3814C47.1165 32.8351 46.6158 33.1915 46.0462 33.4508C45.4858 33.71 44.884 33.8396 44.2409 33.8396ZM44.172 31.7287C44.5395 31.7287 44.884 31.6546 45.2056 31.5065C45.5271 31.3584 45.8073 31.1593 46.0462 30.9094C46.2942 30.6501 46.4826 30.3492 46.6112 30.0067C46.749 29.6549 46.8179 29.2753 46.8179 28.8679C46.8179 28.4791 46.749 28.1134 46.6112 27.7708C46.4734 27.419 46.2805 27.1135 46.0324 26.8542C45.7935 26.5857 45.5133 26.3774 45.1918 26.2293C44.8794 26.0812 44.5395 26.0071 44.172 26.0071C43.8137 26.0071 43.4738 26.0812 43.1522 26.2293C42.8398 26.3774 42.5596 26.5857 42.3116 26.8542C42.0727 27.1135 41.8798 27.419 41.7328 27.7708C41.595 28.1134 41.5261 28.4837 41.5261 28.8818C41.5261 29.2706 41.595 29.641 41.7328 29.9928C41.8798 30.3353 42.0727 30.6362 42.3116 30.8955C42.5596 31.1547 42.8398 31.3584 43.1522 31.5065C43.4646 31.6546 43.8045 31.7287 44.172 31.7287Z" fill="url(#paint0_linear_154_956)"/>
<path d="M50.7538 33.7007C50.4231 33.7007 50.1842 33.6544 50.0372 33.5619C49.8902 33.46 49.7984 33.3258 49.7616 33.1591C49.7341 32.9925 49.7203 32.8212 49.7203 32.6453V25.0489C49.7203 24.8637 49.7341 24.6924 49.7616 24.535C49.7984 24.3776 49.8902 24.248 50.0372 24.1462C50.1842 24.0443 50.4277 23.9934 50.7676 23.9934C51.1167 23.9934 51.3602 24.0443 51.498 24.1462C51.645 24.248 51.7323 24.3776 51.7598 24.535C51.7966 24.6924 51.815 24.8683 51.815 25.0628V32.6592C51.815 32.8351 51.7966 33.0064 51.7598 33.173C51.7231 33.3304 51.6312 33.46 51.4842 33.5619C51.3464 33.6544 51.103 33.7007 50.7538 33.7007Z" fill="#474747"/>
<path d="M53.9568 33.7007C53.6353 33.7007 53.401 33.6498 53.254 33.548C53.107 33.4461 53.0151 33.3165 52.9784 33.1591C52.9416 32.9925 52.9232 32.8166 52.9232 32.6314V25.0072C52.9232 24.8313 52.9416 24.6693 52.9784 24.5211C53.0151 24.373 53.107 24.2527 53.254 24.1601C53.4102 24.0582 53.6582 24.0073 53.9981 24.0073C54.3289 24.0073 54.5586 24.049 54.6872 24.1323C54.8158 24.2064 54.9306 24.3128 55.0317 24.4517L59.0557 30.0206V25.0072C59.0557 24.8313 59.0741 24.6693 59.1108 24.5211C59.1568 24.373 59.2532 24.2527 59.4002 24.1601C59.5472 24.0582 59.7861 24.0073 60.1168 24.0073C60.4568 24.0073 60.6956 24.0582 60.8334 24.1601C60.9804 24.2619 61.0677 24.3962 61.0953 24.5628C61.132 24.7202 61.1504 24.8868 61.1504 25.0628V32.6453C61.1504 32.8212 61.132 32.9925 61.0953 33.1591C61.0585 33.3165 60.9666 33.4461 60.8197 33.548C60.6727 33.6498 60.4292 33.7007 60.0893 33.7007C59.832 33.7007 59.6299 33.6776 59.4829 33.6313C59.3451 33.585 59.2257 33.497 59.1246 33.3674L55.0179 27.7569V32.6453C55.0179 32.8212 54.9996 32.9925 54.9628 33.1591C54.9261 33.3165 54.8342 33.4461 54.6872 33.548C54.5402 33.6498 54.2967 33.7007 53.9568 33.7007Z" fill="#474747"/>
<path d="M69.5239 23.9795C69.68 23.9795 69.8224 23.9934 69.9511 24.0212C70.0797 24.049 70.1853 24.1277 70.268 24.2573C70.3599 24.3776 70.4058 24.5906 70.4058 24.8961C70.4058 25.1831 70.3599 25.3914 70.268 25.521C70.1853 25.6507 70.0751 25.7293 69.9373 25.7571C69.7995 25.7849 69.6525 25.7988 69.4963 25.7988H67.2776V32.6731C67.2776 32.849 67.2592 33.0156 67.2225 33.173C67.1949 33.3304 67.1076 33.46 66.9606 33.5619C66.8228 33.6544 66.5839 33.7007 66.244 33.7007C65.9133 33.7007 65.6744 33.6544 65.5274 33.5619C65.3804 33.46 65.2931 33.3304 65.2656 33.173C65.238 33.0064 65.2242 32.8351 65.2242 32.6592V25.7988H62.978C62.831 25.7988 62.6886 25.7849 62.5508 25.7571C62.413 25.7201 62.3027 25.6414 62.22 25.521C62.1373 25.3914 62.096 25.1785 62.096 24.8822C62.096 24.586 62.1373 24.3776 62.22 24.2573C62.3027 24.1277 62.413 24.049 62.5508 24.0212C62.6886 23.9934 62.831 23.9795 62.978 23.9795H69.5239Z" fill="#474747"/>
<path d="M28.1494 11.5279C28.1494 5.50415 23.5306 0.564528 17.6415 0.0481132V0H6.08151C2.72321 0 0 2.72321 0 6.08151V27.9185C0 31.2768 2.72321 34 6.08151 34H11.56C14.9183 34 17.6415 31.2768 17.6415 27.9185V27.6362C17.6415 25.1985 19.1202 23.043 21.343 22.0423C25.3557 20.2396 28.1494 16.2109 28.1494 11.5247V11.5279Z" fill="url(#paint1_linear_154_956)"/>
<defs>
<linearGradient id="paint0_linear_154_956" x1="40.956" y1="24.6761" x2="47.487" y2="32.8668" gradientUnits="userSpaceOnUse">
<stop stop-color="#7B8DF8"/>
<stop offset="1" stop-color="#7ECFF8"/>
</linearGradient>
<linearGradient id="paint1_linear_154_956" x1="1.56691" y1="-1.99219" x2="25.3034" y2="26.6031" gradientUnits="userSpaceOnUse">
<stop offset="0.223958" stop-color="#7A8CF7"/>
<stop offset="1" stop-color="#7DCEF7"/>
</linearGradient>
</defs>
</svg>
