<svg width="139" height="65" viewBox="0 0 139 65" fill="none" xmlns="http://www.w3.org/2000/svg">
<g filter="url(#filter0_d_13_13)">
<rect x="4" y="3" width="131" height="57" rx="8" fill="white"/>
</g>
<path d="M40.1934 33.2871H41.3184C41.2598 33.8262 41.1055 34.3086 40.8555 34.7344C40.6055 35.1602 40.252 35.498 39.7949 35.748C39.3379 35.9941 38.7676 36.1172 38.084 36.1172C37.584 36.1172 37.1289 36.0234 36.7188 35.8359C36.3125 35.6484 35.9629 35.3828 35.6699 35.0391C35.377 34.6914 35.1504 34.2754 34.9902 33.791C34.834 33.3027 34.7559 32.7598 34.7559 32.1621V31.3125C34.7559 30.7148 34.834 30.1738 34.9902 29.6895C35.1504 29.2012 35.3789 28.7832 35.6758 28.4355C35.9766 28.0879 36.3379 27.8203 36.7598 27.6328C37.1816 27.4453 37.6562 27.3516 38.1836 27.3516C38.8281 27.3516 39.373 27.4727 39.8184 27.7148C40.2637 27.957 40.6094 28.293 40.8555 28.7227C41.1055 29.1484 41.2598 29.6426 41.3184 30.2051H40.1934C40.1387 29.8066 40.0371 29.4648 39.8887 29.1797C39.7402 28.8906 39.5293 28.668 39.2559 28.5117C38.9824 28.3555 38.625 28.2773 38.1836 28.2773C37.8047 28.2773 37.4707 28.3496 37.1816 28.4941C36.8965 28.6387 36.6562 28.8438 36.4609 29.1094C36.2695 29.375 36.125 29.6934 36.0273 30.0645C35.9297 30.4355 35.8809 30.8477 35.8809 31.3008V32.1621C35.8809 32.5801 35.9238 32.9727 36.0098 33.3398C36.0996 33.707 36.2344 34.0293 36.4141 34.3066C36.5938 34.584 36.8223 34.8027 37.0996 34.9629C37.377 35.1191 37.7051 35.1973 38.084 35.1973C38.5645 35.1973 38.9473 35.1211 39.2324 34.9688C39.5176 34.8164 39.7324 34.5977 39.877 34.3125C40.0254 34.0273 40.1309 33.6855 40.1934 33.2871ZM42.4082 32.9004V32.7656C42.4082 32.3086 42.4746 31.8848 42.6074 31.4941C42.7402 31.0996 42.9316 30.7578 43.1816 30.4688C43.4316 30.1758 43.7344 29.9492 44.0898 29.7891C44.4453 29.625 44.8438 29.543 45.2852 29.543C45.7305 29.543 46.1309 29.625 46.4863 29.7891C46.8457 29.9492 47.1504 30.1758 47.4004 30.4688C47.6543 30.7578 47.8477 31.0996 47.9805 31.4941C48.1133 31.8848 48.1797 32.3086 48.1797 32.7656V32.9004C48.1797 33.3574 48.1133 33.7812 47.9805 34.1719C47.8477 34.5625 47.6543 34.9043 47.4004 35.1973C47.1504 35.4863 46.8477 35.7129 46.4922 35.877C46.1406 36.0371 45.7422 36.1172 45.2969 36.1172C44.8516 36.1172 44.4512 36.0371 44.0957 35.877C43.7402 35.7129 43.4355 35.4863 43.1816 35.1973C42.9316 34.9043 42.7402 34.5625 42.6074 34.1719C42.4746 33.7812 42.4082 33.3574 42.4082 32.9004ZM43.4922 32.7656V32.9004C43.4922 33.2168 43.5293 33.5156 43.6035 33.7969C43.6777 34.0742 43.7891 34.3203 43.9375 34.5352C44.0898 34.75 44.2793 34.9199 44.5059 35.0449C44.7324 35.166 44.9961 35.2266 45.2969 35.2266C45.5938 35.2266 45.8535 35.166 46.0762 35.0449C46.3027 34.9199 46.4902 34.75 46.6387 34.5352C46.7871 34.3203 46.8984 34.0742 46.9727 33.7969C47.0508 33.5156 47.0898 33.2168 47.0898 32.9004V32.7656C47.0898 32.4531 47.0508 32.1582 46.9727 31.8809C46.8984 31.5996 46.7852 31.3516 46.6328 31.1367C46.4844 30.918 46.2969 30.7461 46.0703 30.6211C45.8477 30.4961 45.5859 30.4336 45.2852 30.4336C44.9883 30.4336 44.7266 30.4961 44.5 30.6211C44.2773 30.7461 44.0898 30.918 43.9375 31.1367C43.7891 31.3516 43.6777 31.5996 43.6035 31.8809C43.5293 32.1582 43.4922 32.4531 43.4922 32.7656ZM50.6172 30.9199V36H49.5273V29.6602H50.5586L50.6172 30.9199ZM50.3945 32.5898L49.8906 32.5723C49.8945 32.1387 49.9512 31.7383 50.0605 31.3711C50.1699 31 50.332 30.6777 50.5469 30.4043C50.7617 30.1309 51.0293 29.9199 51.3496 29.7715C51.6699 29.6191 52.041 29.543 52.4629 29.543C52.7598 29.543 53.0332 29.5859 53.2832 29.6719C53.5332 29.7539 53.75 29.8848 53.9336 30.0645C54.1172 30.2441 54.2598 30.4746 54.3613 30.7559C54.4629 31.0371 54.5137 31.377 54.5137 31.7754V36H53.4297V31.8281C53.4297 31.4961 53.373 31.2305 53.2598 31.0312C53.1504 30.832 52.9941 30.6875 52.791 30.5977C52.5879 30.5039 52.3496 30.457 52.0762 30.457C51.7559 30.457 51.4883 30.5137 51.2734 30.627C51.0586 30.7402 50.8867 30.8965 50.7578 31.0957C50.6289 31.2949 50.5352 31.5234 50.4766 31.7812C50.4219 32.0352 50.3945 32.3047 50.3945 32.5898ZM54.502 31.9922L53.7754 32.2148C53.7793 31.8672 53.8359 31.5332 53.9453 31.2129C54.0586 30.8926 54.2207 30.6074 54.4316 30.3574C54.6465 30.1074 54.9102 29.9102 55.2227 29.7656C55.5352 29.6172 55.8926 29.543 56.2949 29.543C56.6348 29.543 56.9355 29.5879 57.1973 29.6777C57.4629 29.7676 57.6855 29.9062 57.8652 30.0938C58.0488 30.2773 58.1875 30.5137 58.2812 30.8027C58.375 31.0918 58.4219 31.4355 58.4219 31.834V36H57.332V31.8223C57.332 31.4668 57.2754 31.1914 57.1621 30.9961C57.0527 30.7969 56.8965 30.6582 56.6934 30.5801C56.4941 30.498 56.2559 30.457 55.9785 30.457C55.7402 30.457 55.5293 30.498 55.3457 30.5801C55.1621 30.6621 55.0078 30.7754 54.8828 30.9199C54.7578 31.0605 54.6621 31.2227 54.5957 31.4062C54.5332 31.5898 54.502 31.7852 54.502 31.9922ZM61.2402 29.6602V36H60.1504V29.6602H61.2402ZM60.0684 27.9785C60.0684 27.8027 60.1211 27.6543 60.2266 27.5332C60.3359 27.4121 60.4961 27.3516 60.707 27.3516C60.9141 27.3516 61.0723 27.4121 61.1816 27.5332C61.2949 27.6543 61.3516 27.8027 61.3516 27.9785C61.3516 28.1465 61.2949 28.291 61.1816 28.4121C61.0723 28.5293 60.9141 28.5879 60.707 28.5879C60.4961 28.5879 60.3359 28.5293 60.2266 28.4121C60.1211 28.291 60.0684 28.1465 60.0684 27.9785ZM64.0645 31.0137V36H62.9805V29.6602H64.0059L64.0645 31.0137ZM63.8066 32.5898L63.3555 32.5723C63.3594 32.1387 63.4238 31.7383 63.5488 31.3711C63.6738 31 63.8496 30.6777 64.0762 30.4043C64.3027 30.1309 64.5723 29.9199 64.8848 29.7715C65.2012 29.6191 65.5508 29.543 65.9336 29.543C66.2461 29.543 66.5273 29.5859 66.7773 29.6719C67.0273 29.7539 67.2402 29.8867 67.416 30.0703C67.5957 30.2539 67.7324 30.4922 67.8262 30.7852C67.9199 31.0742 67.9668 31.4277 67.9668 31.8457V36H66.877V31.834C66.877 31.502 66.8281 31.2363 66.7305 31.0371C66.6328 30.834 66.4902 30.6875 66.3027 30.5977C66.1152 30.5039 65.8848 30.457 65.6113 30.457C65.3418 30.457 65.0957 30.5137 64.873 30.627C64.6543 30.7402 64.4648 30.8965 64.3047 31.0957C64.1484 31.2949 64.0254 31.5234 63.9355 31.7812C63.8496 32.0352 63.8066 32.3047 63.8066 32.5898ZM73.7207 29.6602H74.7051V35.8652C74.7051 36.4238 74.5918 36.9004 74.3652 37.2949C74.1387 37.6895 73.8223 37.9883 73.416 38.1914C73.0137 38.3984 72.5488 38.502 72.0215 38.502C71.8027 38.502 71.5449 38.4668 71.248 38.3965C70.9551 38.3301 70.666 38.2148 70.3809 38.0508C70.0996 37.8906 69.8633 37.6738 69.6719 37.4004L70.2402 36.7559C70.5059 37.0762 70.7832 37.2988 71.0723 37.4238C71.3652 37.5488 71.6543 37.6113 71.9395 37.6113C72.2832 37.6113 72.5801 37.5469 72.8301 37.418C73.0801 37.2891 73.2734 37.0977 73.4102 36.8438C73.5508 36.5938 73.6211 36.2852 73.6211 35.918V31.0547L73.7207 29.6602ZM69.3555 32.9004V32.7773C69.3555 32.293 69.4121 31.8535 69.5254 31.459C69.6426 31.0605 69.8086 30.7188 70.0234 30.4336C70.2422 30.1484 70.5059 29.9297 70.8145 29.7773C71.123 29.6211 71.4707 29.543 71.8574 29.543C72.2559 29.543 72.6035 29.6133 72.9004 29.7539C73.2012 29.8906 73.4551 30.0918 73.6621 30.3574C73.873 30.6191 74.0391 30.9355 74.1602 31.3066C74.2812 31.6777 74.3652 32.0977 74.4121 32.5664V33.1055C74.3691 33.5703 74.2852 33.9883 74.1602 34.3594C74.0391 34.7305 73.873 35.0469 73.6621 35.3086C73.4551 35.5703 73.2012 35.7715 72.9004 35.9121C72.5996 36.0488 72.248 36.1172 71.8457 36.1172C71.4668 36.1172 71.123 36.0371 70.8145 35.877C70.5098 35.7168 70.248 35.4922 70.0293 35.2031C69.8105 34.9141 69.6426 34.5742 69.5254 34.1836C69.4121 33.7891 69.3555 33.3613 69.3555 32.9004ZM70.4395 32.7773V32.9004C70.4395 33.2168 70.4707 33.5137 70.5332 33.791C70.5996 34.0684 70.6992 34.3125 70.832 34.5234C70.9688 34.7344 71.1426 34.9004 71.3535 35.0215C71.5645 35.1387 71.8164 35.1973 72.1094 35.1973C72.4688 35.1973 72.7656 35.1211 73 34.9688C73.2344 34.8164 73.4199 34.6152 73.5566 34.3652C73.6973 34.1152 73.8066 33.8438 73.8848 33.5508V32.1387C73.8418 31.9238 73.7754 31.7168 73.6855 31.5176C73.5996 31.3145 73.4863 31.1348 73.3457 30.9785C73.209 30.8184 73.0391 30.6914 72.8359 30.5977C72.6328 30.5039 72.3945 30.457 72.1211 30.457C71.8242 30.457 71.5684 30.5195 71.3535 30.6445C71.1426 30.7656 70.9688 30.9336 70.832 31.1484C70.6992 31.3594 70.5996 31.6055 70.5332 31.8867C70.4707 32.1641 70.4395 32.4609 70.4395 32.7773ZM84.0391 33.8438C84.0391 33.6445 84.0078 33.4688 83.9453 33.3164C83.8867 33.1602 83.7812 33.0195 83.6289 32.8945C83.4805 32.7695 83.2734 32.6504 83.0078 32.5371C82.7461 32.4238 82.4141 32.3086 82.0117 32.1914C81.5898 32.0664 81.209 31.9277 80.8691 31.7754C80.5293 31.6191 80.2383 31.4414 79.9961 31.2422C79.7539 31.043 79.5684 30.8145 79.4395 30.5566C79.3105 30.2988 79.2461 30.0039 79.2461 29.6719C79.2461 29.3398 79.3145 29.0332 79.4512 28.752C79.5879 28.4707 79.7832 28.2266 80.0371 28.0195C80.2949 27.8086 80.6016 27.6445 80.957 27.5273C81.3125 27.4102 81.709 27.3516 82.1465 27.3516C82.7871 27.3516 83.3301 27.4746 83.7754 27.7207C84.2246 27.9629 84.5664 28.2812 84.8008 28.6758C85.0352 29.0664 85.1523 29.4844 85.1523 29.9297H84.0273C84.0273 29.6094 83.959 29.3262 83.8223 29.0801C83.6855 28.8301 83.4785 28.6348 83.2012 28.4941C82.9238 28.3496 82.5723 28.2773 82.1465 28.2773C81.7441 28.2773 81.4121 28.3379 81.1504 28.459C80.8887 28.5801 80.6934 28.7441 80.5645 28.9512C80.4395 29.1582 80.377 29.3945 80.377 29.6602C80.377 29.8398 80.4141 30.0039 80.4883 30.1523C80.5664 30.2969 80.6855 30.4316 80.8457 30.5566C81.0098 30.6816 81.2168 30.7969 81.4668 30.9023C81.7207 31.0078 82.0234 31.1094 82.375 31.207C82.8594 31.3438 83.2773 31.4961 83.6289 31.6641C83.9805 31.832 84.2695 32.0215 84.4961 32.2324C84.7266 32.4395 84.8965 32.6758 85.0059 32.9414C85.1191 33.2031 85.1758 33.5 85.1758 33.832C85.1758 34.1797 85.1055 34.4941 84.9648 34.7754C84.8242 35.0566 84.623 35.2969 84.3613 35.4961C84.0996 35.6953 83.7852 35.8496 83.418 35.959C83.0547 36.0645 82.6484 36.1172 82.1992 36.1172C81.8047 36.1172 81.416 36.0625 81.0332 35.9531C80.6543 35.8438 80.3086 35.6797 79.9961 35.4609C79.6875 35.2422 79.4395 34.9727 79.252 34.6523C79.0684 34.3281 78.9766 33.9531 78.9766 33.5273H80.1016C80.1016 33.8203 80.1582 34.0723 80.2715 34.2832C80.3848 34.4902 80.5391 34.6621 80.7344 34.7988C80.9336 34.9355 81.1582 35.0371 81.4082 35.1035C81.6621 35.166 81.9258 35.1973 82.1992 35.1973C82.5938 35.1973 82.9277 35.1426 83.2012 35.0332C83.4746 34.9238 83.6816 34.7676 83.8223 34.5645C83.9668 34.3613 84.0391 34.1211 84.0391 33.8438ZM86.166 32.9004V32.7656C86.166 32.3086 86.2324 31.8848 86.3652 31.4941C86.498 31.0996 86.6895 30.7578 86.9395 30.4688C87.1895 30.1758 87.4922 29.9492 87.8477 29.7891C88.2031 29.625 88.6016 29.543 89.043 29.543C89.4883 29.543 89.8887 29.625 90.2441 29.7891C90.6035 29.9492 90.9082 30.1758 91.1582 30.4688C91.4121 30.7578 91.6055 31.0996 91.7383 31.4941C91.8711 31.8848 91.9375 32.3086 91.9375 32.7656V32.9004C91.9375 33.3574 91.8711 33.7812 91.7383 34.1719C91.6055 34.5625 91.4121 34.9043 91.1582 35.1973C90.9082 35.4863 90.6055 35.7129 90.25 35.877C89.8984 36.0371 89.5 36.1172 89.0547 36.1172C88.6094 36.1172 88.209 36.0371 87.8535 35.877C87.498 35.7129 87.1934 35.4863 86.9395 35.1973C86.6895 34.9043 86.498 34.5625 86.3652 34.1719C86.2324 33.7812 86.166 33.3574 86.166 32.9004ZM87.25 32.7656V32.9004C87.25 33.2168 87.2871 33.5156 87.3613 33.7969C87.4355 34.0742 87.5469 34.3203 87.6953 34.5352C87.8477 34.75 88.0371 34.9199 88.2637 35.0449C88.4902 35.166 88.7539 35.2266 89.0547 35.2266C89.3516 35.2266 89.6113 35.166 89.834 35.0449C90.0605 34.9199 90.248 34.75 90.3965 34.5352C90.5449 34.3203 90.6562 34.0742 90.7305 33.7969C90.8086 33.5156 90.8477 33.2168 90.8477 32.9004V32.7656C90.8477 32.4531 90.8086 32.1582 90.7305 31.8809C90.6562 31.5996 90.543 31.3516 90.3906 31.1367C90.2422 30.918 90.0547 30.7461 89.8281 30.6211C89.6055 30.4961 89.3438 30.4336 89.043 30.4336C88.7461 30.4336 88.4844 30.4961 88.2578 30.6211C88.0352 30.7461 87.8477 30.918 87.6953 31.1367C87.5469 31.3516 87.4355 31.5996 87.3613 31.8809C87.2871 32.1582 87.25 32.4531 87.25 32.7656ZM93.0098 32.9004V32.7656C93.0098 32.3086 93.0762 31.8848 93.209 31.4941C93.3418 31.0996 93.5332 30.7578 93.7832 30.4688C94.0332 30.1758 94.3359 29.9492 94.6914 29.7891C95.0469 29.625 95.4453 29.543 95.8867 29.543C96.332 29.543 96.7324 29.625 97.0879 29.7891C97.4473 29.9492 97.752 30.1758 98.002 30.4688C98.2559 30.7578 98.4492 31.0996 98.582 31.4941C98.7148 31.8848 98.7812 32.3086 98.7812 32.7656V32.9004C98.7812 33.3574 98.7148 33.7812 98.582 34.1719C98.4492 34.5625 98.2559 34.9043 98.002 35.1973C97.752 35.4863 97.4492 35.7129 97.0938 35.877C96.7422 36.0371 96.3438 36.1172 95.8984 36.1172C95.4531 36.1172 95.0527 36.0371 94.6973 35.877C94.3418 35.7129 94.0371 35.4863 93.7832 35.1973C93.5332 34.9043 93.3418 34.5625 93.209 34.1719C93.0762 33.7812 93.0098 33.3574 93.0098 32.9004ZM94.0938 32.7656V32.9004C94.0938 33.2168 94.1309 33.5156 94.2051 33.7969C94.2793 34.0742 94.3906 34.3203 94.5391 34.5352C94.6914 34.75 94.8809 34.9199 95.1074 35.0449C95.334 35.166 95.5977 35.2266 95.8984 35.2266C96.1953 35.2266 96.4551 35.166 96.6777 35.0449C96.9043 34.9199 97.0918 34.75 97.2402 34.5352C97.3887 34.3203 97.5 34.0742 97.5742 33.7969C97.6523 33.5156 97.6914 33.2168 97.6914 32.9004V32.7656C97.6914 32.4531 97.6523 32.1582 97.5742 31.8809C97.5 31.5996 97.3867 31.3516 97.2344 31.1367C97.0859 30.918 96.8984 30.7461 96.6719 30.6211C96.4492 30.4961 96.1875 30.4336 95.8867 30.4336C95.5898 30.4336 95.3281 30.4961 95.1016 30.6211C94.8789 30.7461 94.6914 30.918 94.5391 31.1367C94.3906 31.3516 94.2793 31.5996 94.2051 31.8809C94.1309 32.1582 94.0938 32.4531 94.0938 32.7656ZM101.225 31.0137V36H100.141V29.6602H101.166L101.225 31.0137ZM100.967 32.5898L100.516 32.5723C100.52 32.1387 100.584 31.7383 100.709 31.3711C100.834 31 101.01 30.6777 101.236 30.4043C101.463 30.1309 101.732 29.9199 102.045 29.7715C102.361 29.6191 102.711 29.543 103.094 29.543C103.406 29.543 103.688 29.5859 103.938 29.6719C104.188 29.7539 104.4 29.8867 104.576 30.0703C104.756 30.2539 104.893 30.4922 104.986 30.7852C105.08 31.0742 105.127 31.4277 105.127 31.8457V36H104.037V31.834C104.037 31.502 103.988 31.2363 103.891 31.0371C103.793 30.834 103.65 30.6875 103.463 30.5977C103.275 30.5039 103.045 30.457 102.771 30.457C102.502 30.457 102.256 30.5137 102.033 30.627C101.814 30.7402 101.625 30.8965 101.465 31.0957C101.309 31.2949 101.186 31.5234 101.096 31.7812C101.01 32.0352 100.967 32.3047 100.967 32.5898Z" fill="#444444"/>
<defs>
<filter id="filter0_d_13_13" x="0" y="0" width="139" height="65" filterUnits="userSpaceOnUse" color-interpolation-filters="sRGB">
<feFlood flood-opacity="0" result="BackgroundImageFix"/>
<feColorMatrix in="SourceAlpha" type="matrix" values="0 0 0 0 0 0 0 0 0 0 0 0 0 0 0 0 0 0 127 0" result="hardAlpha"/>
<feOffset dy="1"/>
<feGaussianBlur stdDeviation="2"/>
<feComposite in2="hardAlpha" operator="out"/>
<feColorMatrix type="matrix" values="0 0 0 0 0 0 0 0 0 0 0 0 0 0 0 0 0 0 0.25 0"/>
<feBlend mode="normal" in2="BackgroundImageFix" result="effect1_dropShadow_13_13"/>
<feBlend mode="normal" in="SourceGraphic" in2="effect1_dropShadow_13_13" result="shape"/>
</filter>
</defs>
</svg>
