<svg width="1541" height="548" viewBox="0 0 1541 548" fill="none" xmlns="http://www.w3.org/2000/svg">
<g opacity="0.1" clip-path="url(#clip0_15_2)">
<path d="M392.593 418.234C463.512 455.346 530.506 490.379 614.266 490.379C692.039 490.379 757.857 452.254 827.691 411.868C907.725 365.496 998.521 312.939 1121.22 312.939C1264.27 312.939 1370.1 364.013 1463.48 409.065C1490.34 422.032 1515.93 434.385 1541.04 444.983C1541.04 444.296 1541.04 443.591 1541.04 442.903C1516.22 432.395 1490.92 420.188 1464.37 407.365C1370.73 362.223 1264.71 311.13 1121.22 311.13C998.015 311.13 906.983 363.814 826.66 410.313C757.134 450.554 691.46 488.57 614.266 488.57C531.066 488.57 464.145 453.628 393.479 416.643C323.827 380.2 251.805 342.491 163.776 342.491C102.679 342.491 52.8679 361.246 7.05386 384.938C7.05386 385.644 7.05386 386.331 7.05386 387.036C52.904 363.253 102.697 344.372 163.74 344.372C251.335 344.336 323.158 381.9 392.593 418.234Z" fill="url(#paint0_linear_15_2)"/>
<path d="M1541.6 464.028C1513.54 452.543 1485.53 439.015 1456.84 425.179C1364.96 380.851 1260.82 330.59 1121.22 330.59C1002.61 330.59 917.564 379.82 835.305 427.422C763.681 468.875 696.036 508.03 614.266 508.03C526.78 508.03 454.957 470.448 385.503 434.114C314.585 397.02 247.609 361.987 163.831 361.987C103.222 361.987 53.5914 381.882 7.5784 406.406C7.5784 407.111 7.5784 407.817 7.5784 408.522C53.6275 383.944 103.24 363.868 163.795 363.868C247.103 363.868 313.915 398.792 384.599 435.796C454.251 472.238 526.273 509.947 614.302 509.947C696.579 509.947 764.423 470.665 836.282 429.086C918.288 381.665 1003.11 332.471 1121.22 332.471C1260.38 332.471 1364.31 382.623 1456.03 426.879C1484.97 440.842 1513.29 454.514 1541.67 466.089C1541.74 465.402 1541.61 464.715 1541.6 464.028Z" fill="url(#paint1_linear_15_2)"/>
<path opacity="0.77" d="M192.806 155.158C253.976 119.62 317.243 82.8149 402.414 82.8149C489.919 82.8149 561.723 120.397 631.177 156.732C702.095 193.826 769.071 228.876 852.849 228.876C930.623 228.876 996.423 190.733 1066.27 150.347C1146.4 103.975 1237.2 51.4361 1359.9 51.4361C1416.47 51.4876 1472.74 59.6489 1527 75.671V73.6997C1472.71 57.7253 1416.4 49.6068 1359.81 49.5913C1236.6 49.5913 1145.64 102.293 1065.24 148.774C995.699 189.015 930.026 227.031 852.849 227.031C769.541 227.031 702.729 192.107 632.045 155.104C562.393 118.661 490.371 80.9521 402.342 80.9521C316.665 80.9521 253.18 117.829 191.775 153.494C131.962 188.309 75.2232 221.244 3.43649 214.606C3.43649 215.239 3.43649 215.872 3.43649 216.505C75.7477 223.107 132.776 190.082 192.806 155.158Z" fill="url(#paint2_linear_15_2)"/>
<path opacity="0.77" d="M1527.51 94.1005C1473.14 77.5842 1416.63 69.1683 1359.81 69.124C1241.17 69.124 1156.13 118.354 1073.87 165.955C1002.27 207.408 934.602 246.564 852.849 246.564C765.345 246.564 693.54 209 624.087 172.665C553.168 135.553 486.175 100.521 402.414 100.521C321.331 100.521 259.908 136.204 200.511 170.694C138.6 206.648 79.9439 240.596 3.85251 234.247C3.85251 234.88 3.85251 235.513 3.85251 236.146C80.4684 242.585 139.341 208.421 201.506 172.322C260.686 137.959 321.892 102.402 402.469 102.402C485.777 102.402 552.59 137.344 623.273 174.329C692.907 210.772 764.929 248.481 852.976 248.481C935.253 248.481 1003.1 209.217 1074.94 167.637C1156.85 120.108 1241.68 71.0049 1359.81 71.0049C1416.66 71.0745 1473.19 79.5457 1527.56 96.1442L1527.51 94.1005Z" fill="url(#paint3_linear_15_2)"/>
<path opacity="0.45" d="M1489.81 163.875C1412.96 174.727 1353.67 140.364 1290.86 103.812C1229.58 68.2015 1166.2 31.4692 1080.78 31.4692C993.059 31.4692 921.127 69.0877 851.583 105.476C780.81 142.462 713.924 187.785 630.381 187.785C552.951 187.785 487.151 139.369 417.517 99.0559C337.302 52.6296 246.379 0.0541686 123.425 0.0541686C81.9352 0.0309681 40.561 4.42036 0 13.1483L0.271302 33.0427C40.7086 24.0765 82.0052 19.5583 123.425 19.5688C241.785 19.5688 326.739 68.726 408.871 116.274C480.604 157.871 548.357 212.707 630.381 212.707C718.121 212.707 790.034 159.39 859.578 123.001C930.406 85.9075 997.327 50.9295 1080.82 50.9295C1161.65 50.9295 1222.96 86.5405 1282.25 120.976C1347.69 158.956 1409.49 194.893 1492.17 183.245L1489.81 163.875Z" fill="url(#paint4_linear_15_2)"/>
<path opacity="0.77" d="M1540.55 430.026C1526.39 435.922 1512.42 442.198 1498.33 448.582C1439.5 475.078 1378.65 502.478 1291.38 502.478C1209.05 502.478 1156.74 462.309 1101.34 419.754C1038.53 371.519 973.561 321.638 855.508 321.638C722.751 321.638 628.88 382.497 538.102 441.348C454.902 495.244 376.369 546.246 275.155 546.246C217.784 546.246 169.836 518.032 114.327 485.459C82.9825 467.066 48.6536 446.918 8.06674 429.158C8.06674 429.864 8.06674 430.551 8.06674 431.256C48.2376 448.89 82.2228 468.838 113.332 487.069C169.13 519.786 217.277 548.054 275.155 548.054C376.93 548.054 455.68 496.98 539.079 442.921C629.621 384.215 723.257 323.555 855.454 323.555C972.874 323.555 1037.57 373.237 1100.15 421.219C1155.8 463.955 1208.36 504.413 1291.33 504.413C1379 504.413 1440.02 476.941 1499.06 450.355C1512.97 444.079 1526.69 437.894 1540.66 432.106C1540.6 431.365 1540.58 430.695 1540.55 430.026Z" fill="url(#paint5_linear_15_2)"/>
<path opacity="0.77" d="M275.155 528.522C371.866 528.522 448.518 478.822 529.674 426.21C622.351 366.129 718.193 303.986 855.454 303.986C978.698 303.986 1048.84 357.846 1110.73 405.375C1163.94 446.249 1214.21 484.844 1291.33 484.844C1375.34 484.844 1432.01 459.307 1492.09 432.287C1507.76 425.234 1523.58 418.108 1539.99 411.452C1539.99 410.783 1539.99 410.114 1539.99 409.445C1523.33 416.191 1507.29 423.407 1491.39 430.569C1431.57 457.517 1375.09 483.018 1291.47 483.018C1214.98 483.018 1164.97 444.603 1112.02 403.928C1049.78 356.164 979.349 302.087 855.454 302.087C717.632 302.087 621.555 364.375 528.643 424.619C447.74 477.067 371.287 526.623 275.155 526.623C222.432 526.623 178.572 500.886 123.045 468.296C89.3672 448.582 52.1263 426.699 7.61456 407.871C7.61456 408.558 7.61456 409.246 7.61456 409.933C51.7465 428.688 88.5894 450.282 122.086 469.942C177.866 502.677 221.926 528.522 275.155 528.522Z" fill="url(#paint6_linear_15_2)"/>
<path opacity="0.77" d="M1530.67 392.86L1529.73 393.005C1451.14 404.073 1391.11 369.204 1327.58 332.272C1266.82 297.023 1204.11 260.49 1120.05 260.49C1033.54 260.49 962.184 297.819 893.183 333.918C824.941 369.62 754.385 406.533 669.611 406.533C590.807 406.533 524.446 368.137 454.179 327.462C370.636 279.1 284.253 229.093 162.655 229.093C109.083 229.108 55.7667 236.472 4.19614 250.977C4.19614 251.628 4.19614 252.279 4.19614 252.93C55.7482 238.39 109.055 231.008 162.619 230.992C283.801 230.992 369.876 280.854 453.202 329.089C523.741 369.891 590.283 408.432 669.575 408.432C754.801 408.432 825.574 371.392 894.033 335.582C962.763 299.591 1033.97 262.371 1120.01 262.371C1203.57 262.371 1266.1 298.705 1326.58 333.828C1390.21 370.813 1450.31 405.737 1529.08 394.994L1529.55 398.937C1449.68 409.788 1389.14 374.684 1325.01 337.445C1264.9 302.539 1202.76 266.44 1120.08 266.44C1034.84 266.44 964.066 303.462 895.625 339.272C826.895 375.262 755.687 412.483 669.648 412.483C589.469 412.483 522.511 373.743 451.629 332.706C368.682 284.689 282.915 235.043 162.691 235.043C109.15 235.066 55.8693 242.485 4.35892 257.09C4.35892 257.741 4.35892 258.392 4.35892 259.043C55.8522 244.414 109.124 236.988 162.655 236.978C282.372 236.978 367.923 286.497 450.652 334.388C521.77 375.552 588.926 414.436 669.611 414.436C756.103 414.436 827.455 377.107 896.457 341.008C964.771 305.234 1035.31 268.303 1120.05 268.303C1202.22 268.303 1264.14 304.276 1324.05 339.073C1388.69 376.619 1449.73 412.067 1530.71 400.673L1531.61 400.546L1530.67 392.86Z" fill="url(#paint7_linear_15_2)"/>
<path opacity="0.77" d="M1537.98 360.523C1459.52 371.266 1402.33 333.719 1338.75 296.842C1278.18 261.647 1216.03 199.649 1132.22 199.649C1045.94 199.649 971.463 265.265 902.516 301.31C834.184 337.065 763.5 374.051 678.51 374.051C599.453 374.051 532.983 335.564 462.607 294.835C379.173 246.546 292.899 196.611 171.554 196.611C114.666 196.647 58.0841 204.944 3.58121 221.244C3.58121 223.269 3.58121 225.295 3.70781 227.321C58.1544 210.882 114.716 202.51 171.59 202.471C291.56 202.471 377.219 252.044 460.057 299.989C531.048 341.08 598.114 379.856 678.546 379.856C764.803 379.856 836.047 342.581 904.958 306.536C973.29 270.781 1044.62 220.936 1129.63 220.936C1212.07 220.936 1273.44 269.768 1333.44 304.674C1397.59 341.948 1458.23 377.143 1538.21 366.328C1538.12 364.429 1538.12 362.476 1537.98 360.523Z" fill="url(#paint8_linear_15_2)"/>
<path d="M620.108 262.172C690.647 302.955 757.188 341.496 836.481 341.496C921.706 341.496 992.48 304.475 1060.94 268.665C1129.74 232.674 1200.88 195.381 1286.92 195.381C1370.48 195.381 1433 231.697 1493.49 266.838C1507.43 274.94 1521.21 282.934 1535.09 290.35C1535.09 289.608 1535.09 288.885 1535.09 288.143C1521.59 280.909 1508.15 273.06 1494.57 265.174C1433.74 230.015 1370.98 193.572 1286.92 193.572C1200.42 193.572 1129.07 230.901 1060.07 267.001C991.811 302.702 921.254 339.615 836.481 339.615C757.694 339.615 691.316 301.201 621.048 260.526C537.505 212.183 451.104 162.175 329.524 162.175C195.049 162.175 93.4909 207.697 4.19614 250.597C4.19614 251.302 4.19614 251.99 4.19614 252.677C93.509 209.741 195.049 164.056 329.488 164.056C450.616 164.056 536.782 213.937 620.108 262.172Z" fill="url(#paint9_linear_15_2)"/>
<path d="M1535.25 294.961C1520.78 287.239 1506.4 278.883 1491.84 270.437C1431.74 235.513 1369.59 199.432 1286.92 199.432C1201.67 199.432 1130.9 236.454 1062.46 272.264C993.71 308.255 922.52 345.493 836.481 345.493C756.32 345.493 689.362 306.735 618.462 265.699C535.516 217.699 449.748 168.035 329.524 168.035C195.157 168.035 93.6356 214.009 4.35892 256.963C4.35892 257.65 4.35892 258.338 4.35892 259.025C93.6718 216.053 195.175 169.916 329.524 169.916C449.296 169.916 534.792 219.435 617.503 267.326C688.639 308.49 755.814 347.302 836.481 347.302C922.972 347.302 994.325 309.973 1063.34 273.873C1131.59 238.172 1202.14 201.259 1286.92 201.259C1369.08 201.259 1431.01 237.232 1490.9 272.011C1505.8 280.674 1520.53 289.21 1535.34 297.096C1535.3 296.426 1535.28 295.685 1535.25 294.961Z" fill="url(#paint10_linear_15_2)"/>
<path opacity="0.77" d="M362.605 210.501C501.874 283.332 545.156 283.332 587.063 283.332C666.356 283.332 732.934 244.81 803.436 203.99C886.762 155.773 972.928 105.892 1094.02 105.892C1235.69 105.892 1340.87 156.641 1433.65 201.422C1467.35 217.699 1500.21 233.524 1533.13 246.039C1533.13 245.37 1533.13 244.683 1533.13 243.996C1500.58 231.553 1468.02 215.836 1434.54 199.722C1341.5 154.869 1236.07 104.011 1094.02 104.011C972.422 104.011 886.021 154.019 802.478 202.38C732.21 243.037 665.849 281.451 587.063 281.451C545.463 281.451 502.29 281.451 363.473 208.837C294.472 172.665 223.119 135.408 136.628 135.408C85.4785 135.408 42.2147 148.919 2.51407 167.42C2.51407 168.108 2.51407 168.795 2.51407 169.5C42.3413 150.89 85.5146 137.289 136.628 137.289C222.667 137.289 293.749 174.51 362.605 210.501Z" fill="url(#paint11_linear_15_2)"/>
<path opacity="0.77" d="M1533.33 250.326C1499.83 237.666 1466.41 221.587 1432.23 205.111C1339.77 160.475 1234.95 109.907 1094 109.907C973.778 109.907 888.01 159.553 805.046 207.571C734.163 248.589 667.206 287.347 587.045 287.347C501.006 287.347 429.87 250.127 361.068 214.136C221.799 141.304 178.517 141.304 136.61 141.304C85.5689 141.304 42.3594 155.068 2.60452 173.859C2.60452 174.546 2.60452 175.233 2.60452 175.921C42.3956 157.093 85.5689 143.24 136.574 143.24C178.174 143.24 221.347 143.24 360.164 215.854C429.165 252.026 500.518 289.282 587.009 289.282C667.676 289.282 734.851 250.416 805.968 209.253C888.698 161.362 974.176 111.843 1093.97 111.843C1234.54 111.752 1339.17 162.23 1431.41 206.775C1465.96 223.432 1499.6 239.655 1533.42 252.369C1533.39 251.682 1533.37 250.995 1533.33 250.326Z" fill="url(#paint12_linear_15_2)"/>
<path opacity="0.5" d="M133.698 358.406C182.985 387.597 225.543 412.827 275.571 412.827C370.184 412.827 444.358 377.053 533.381 319.341C625.317 259.658 720.381 198.166 855.87 198.166C977.052 198.166 1043.36 249.06 1107.44 298.289C1161.5 339.887 1212.58 379.024 1291.75 379.024C1377.04 379.024 1436.95 352.04 1494.9 325.942C1508.32 319.884 1521.86 313.789 1535.79 307.983C1535.79 307.314 1535.79 306.663 1535.79 305.994C1521.61 311.872 1507.85 318.075 1494.19 324.224C1436.42 350.232 1376.63 377.143 1291.82 377.143C1213.28 377.143 1162.46 338.114 1108.67 296.788C1044.32 247.378 977.793 196.285 855.942 196.285C719.893 196.285 624.593 258.084 532.423 317.822C443.707 375.353 369.786 411 275.589 411C226.086 411 183.726 385.915 134.675 356.851L120.422 348.441C86.2924 328.348 49.142 308.942 5.10049 293.044C5.10049 293.732 5.10049 294.401 5.10049 295.07C48.726 310.967 85.5689 330.229 119.428 350.087L133.698 358.406Z" fill="url(#paint13_linear_15_2)"/>
<path opacity="0.5" d="M1535.97 312.089C1522.44 317.75 1509.29 323.664 1496.18 329.56C1437.94 355.784 1377.69 382.931 1291.71 382.931C1211.42 382.931 1159.91 343.359 1105.41 301.545L1100.91 298.072C1038.1 249.783 973.145 199.848 855.87 199.848C724.686 199.848 631.81 260.11 542.009 318.401L535.172 322.832C452.804 376.239 375.013 426.608 275.662 426.608C219.918 426.608 172.567 398.864 117.89 366.726C84.9539 347.41 48.7441 326.177 5.51648 307.73V309.81C48.2738 328.131 84.1762 349.11 116.841 368.354C171.825 400.619 219.321 428.489 275.571 428.489C375.574 428.489 453.6 377.849 536.203 324.351L543.022 319.92C632.606 261.792 725.247 201.675 855.924 201.675C972.548 201.675 1037.24 251.411 1099.83 299.519L1104.33 302.973C1159.11 345.059 1210.88 384.812 1291.8 384.812C1378.2 384.812 1438.61 357.593 1497.05 331.278C1509.89 325.49 1522.82 319.667 1536.12 314.096C1536.03 313.427 1536.01 312.758 1535.97 312.089Z" fill="url(#paint14_linear_15_2)"/>
</g>
<defs>
<linearGradient id="paint0_linear_15_2" x1="-248.568" y1="400.727" x2="1683.92" y2="400.727" gradientUnits="userSpaceOnUse">
<stop stop-color="#BBC3CF"/>
<stop offset="0.34" stop-color="#0F192F"/>
<stop offset="0.7" stop-color="#BBC3CF"/>
<stop offset="1" stop-color="#0F192F"/>
</linearGradient>
<linearGradient id="paint1_linear_15_2" x1="-171568" y1="36261.2" x2="1.46756e+06" y2="36261.2" gradientUnits="userSpaceOnUse">
<stop stop-color="#BBC3CF"/>
<stop offset="0.34" stop-color="#0F192F"/>
<stop offset="0.7" stop-color="#BBC3CF"/>
<stop offset="1" stop-color="#0F192F"/>
</linearGradient>
<linearGradient id="paint2_linear_15_2" x1="-10.002" y1="139.261" x2="1922.49" y2="139.261" gradientUnits="userSpaceOnUse">
<stop stop-color="#0F192F"/>
<stop offset="0.3" stop-color="#BBC3CF"/>
<stop offset="0.66" stop-color="#0F192F"/>
<stop offset="1" stop-color="#BBC3CF"/>
</linearGradient>
<linearGradient id="paint3_linear_15_2" x1="30569.5" y1="10071.9" x2="1.65859e+06" y2="10071.9" gradientUnits="userSpaceOnUse">
<stop stop-color="#0F192F"/>
<stop offset="0.3" stop-color="#BBC3CF"/>
<stop offset="0.66" stop-color="#0F192F"/>
<stop offset="1" stop-color="#BBC3CF"/>
</linearGradient>
<linearGradient id="paint4_linear_15_2" x1="1.26922e+06" y1="5692.77" x2="-323442" y2="5692.77" gradientUnits="userSpaceOnUse">
<stop stop-color="#0F192F"/>
<stop offset="0.3" stop-color="#BBC3CF"/>
<stop offset="0.66" stop-color="#0F192F"/>
<stop offset="1" stop-color="#BBC3CF"/>
</linearGradient>
<linearGradient id="paint5_linear_15_2" x1="-167795" y1="47506.8" x2="1.84425e+06" y2="47506.8" gradientUnits="userSpaceOnUse">
<stop stop-color="#0F192F"/>
<stop offset="0.3" stop-color="#BBC3CF"/>
<stop offset="0.66" stop-color="#0F192F"/>
<stop offset="1" stop-color="#BBC3CF"/>
</linearGradient>
<linearGradient id="paint6_linear_15_2" x1="-167772" y1="45045.5" x2="1.84399e+06" y2="45045.5" gradientUnits="userSpaceOnUse">
<stop stop-color="#0F192F"/>
<stop offset="0.3" stop-color="#BBC3CF"/>
<stop offset="0.66" stop-color="#0F192F"/>
<stop offset="1" stop-color="#BBC3CF"/>
</linearGradient>
<linearGradient id="paint7_linear_15_2" x1="-298743" y1="27267" x2="1.33252e+06" y2="27267" gradientUnits="userSpaceOnUse">
<stop stop-color="#0F192F"/>
<stop offset="0.3" stop-color="#BBC3CF"/>
<stop offset="0.66" stop-color="#0F192F"/>
<stop offset="1" stop-color="#BBC3CF"/>
</linearGradient>
<linearGradient id="paint8_linear_15_2" x1="-291776" y1="23532.9" x2="1.34551e+06" y2="23532.9" gradientUnits="userSpaceOnUse">
<stop stop-color="#BBC3CF"/>
<stop offset="0.34" stop-color="#0F192F"/>
<stop offset="0.7" stop-color="#BBC3CF"/>
<stop offset="1" stop-color="#0F192F"/>
</linearGradient>
<linearGradient id="paint9_linear_15_2" x1="-158183" y1="19389" x2="1.47681e+06" y2="19389" gradientUnits="userSpaceOnUse">
<stop stop-color="#0F192F"/>
<stop offset="0.3" stop-color="#BBC3CF"/>
<stop offset="0.66" stop-color="#0F192F"/>
<stop offset="1" stop-color="#BBC3CF"/>
</linearGradient>
<linearGradient id="paint10_linear_15_2" x1="-158192" y1="19969.8" x2="1.47689e+06" y2="19969.8" gradientUnits="userSpaceOnUse">
<stop stop-color="#0F192F"/>
<stop offset="0.3" stop-color="#BBC3CF"/>
<stop offset="0.66" stop-color="#0F192F"/>
<stop offset="1" stop-color="#BBC3CF"/>
</linearGradient>
<linearGradient id="paint11_linear_15_2" x1="-193514" y1="13563.8" x2="1.44119e+06" y2="13563.8" gradientUnits="userSpaceOnUse">
<stop stop-color="#BBC3CF"/>
<stop offset="0.34" stop-color="#0F192F"/>
<stop offset="0.7" stop-color="#BBC3CF"/>
<stop offset="1" stop-color="#0F192F"/>
</linearGradient>
<linearGradient id="paint12_linear_15_2" x1="-193539" y1="14155" x2="1.44137e+06" y2="14155" gradientUnits="userSpaceOnUse">
<stop stop-color="#BBC3CF"/>
<stop offset="0.34" stop-color="#0F192F"/>
<stop offset="0.7" stop-color="#BBC3CF"/>
<stop offset="1" stop-color="#0F192F"/>
</linearGradient>
<linearGradient id="paint13_linear_15_2" x1="-167238" y1="29719.5" x2="1.84161e+06" y2="29719.5" gradientUnits="userSpaceOnUse">
<stop stop-color="#0F192F"/>
<stop offset="0.3" stop-color="#BBC3CF"/>
<stop offset="0.66" stop-color="#0F192F"/>
<stop offset="1" stop-color="#BBC3CF"/>
</linearGradient>
<linearGradient id="paint14_linear_15_2" x1="-167228" y1="32589.1" x2="1.8415e+06" y2="32589.1" gradientUnits="userSpaceOnUse">
<stop stop-color="#0F192F"/>
<stop offset="0.3" stop-color="#BBC3CF"/>
<stop offset="0.66" stop-color="#0F192F"/>
<stop offset="1" stop-color="#BBC3CF"/>
</linearGradient>
<clipPath id="clip0_15_2">
<rect width="1541" height="548" fill="white"/>
</clipPath>
</defs>
</svg>
